<mxfile host="app.diagrams.net" modified="2021-01-13T07:44:05.723Z" agent="5.0 (Windows NT 10.0; Win64; x64) AppleWebKit/537.36 (KHTML, like Gecko) Chrome/87.0.4280.88 Safari/537.36" etag="RLOV9RnBbxwdYwdnX0cC" version="14.1.9" type="github">
  <diagram id="elj1aR2KJB44pm3A8Auk" name="Page-1">
    <mxGraphModel dx="1029" dy="2135" grid="1" gridSize="10" guides="1" tooltips="1" connect="1" arrows="1" fold="1" page="1" pageScale="1" pageWidth="827" pageHeight="1169" math="0" shadow="0">
      <root>
        <mxCell id="0" />
        <mxCell id="1" parent="0" />
        <mxCell id="tycSg9s_605FR_uE6vuB-6" style="edgeStyle=orthogonalEdgeStyle;rounded=0;orthogonalLoop=1;jettySize=auto;html=1;exitX=0.5;exitY=1;exitDx=0;exitDy=0;entryX=0.5;entryY=0;entryDx=0;entryDy=0;" edge="1" parent="1" source="tycSg9s_605FR_uE6vuB-1" target="tycSg9s_605FR_uE6vuB-3">
          <mxGeometry relative="1" as="geometry">
            <Array as="points">
              <mxPoint x="414" y="140" />
              <mxPoint x="190" y="140" />
            </Array>
          </mxGeometry>
        </mxCell>
        <mxCell id="tycSg9s_605FR_uE6vuB-7" style="edgeStyle=orthogonalEdgeStyle;rounded=0;orthogonalLoop=1;jettySize=auto;html=1;exitX=0.5;exitY=1;exitDx=0;exitDy=0;entryX=0.5;entryY=0;entryDx=0;entryDy=0;" edge="1" parent="1" source="tycSg9s_605FR_uE6vuB-1" target="tycSg9s_605FR_uE6vuB-4">
          <mxGeometry relative="1" as="geometry">
            <Array as="points">
              <mxPoint x="414" y="140" />
              <mxPoint x="60" y="140" />
            </Array>
          </mxGeometry>
        </mxCell>
        <mxCell id="tycSg9s_605FR_uE6vuB-8" style="edgeStyle=orthogonalEdgeStyle;rounded=0;orthogonalLoop=1;jettySize=auto;html=1;exitX=0.5;exitY=1;exitDx=0;exitDy=0;entryX=0.5;entryY=0;entryDx=0;entryDy=0;" edge="1" parent="1" source="tycSg9s_605FR_uE6vuB-1" target="tycSg9s_605FR_uE6vuB-2">
          <mxGeometry relative="1" as="geometry">
            <Array as="points">
              <mxPoint x="414" y="140" />
              <mxPoint x="320" y="140" />
            </Array>
          </mxGeometry>
        </mxCell>
        <mxCell id="tycSg9s_605FR_uE6vuB-9" style="edgeStyle=orthogonalEdgeStyle;rounded=0;orthogonalLoop=1;jettySize=auto;html=1;exitX=0.5;exitY=1;exitDx=0;exitDy=0;entryX=0.5;entryY=0;entryDx=0;entryDy=0;" edge="1" parent="1" source="tycSg9s_605FR_uE6vuB-1" target="tycSg9s_605FR_uE6vuB-5">
          <mxGeometry relative="1" as="geometry">
            <Array as="points">
              <mxPoint x="414" y="140" />
              <mxPoint x="610" y="140" />
            </Array>
          </mxGeometry>
        </mxCell>
        <mxCell id="tycSg9s_605FR_uE6vuB-1" value="홈" style="rounded=0;whiteSpace=wrap;html=1;" vertex="1" parent="1">
          <mxGeometry x="354" y="70" width="120" height="60" as="geometry" />
        </mxCell>
        <mxCell id="tycSg9s_605FR_uE6vuB-22" style="edgeStyle=orthogonalEdgeStyle;rounded=0;orthogonalLoop=1;jettySize=auto;html=1;exitX=0.5;exitY=1;exitDx=0;exitDy=0;entryX=0.5;entryY=0;entryDx=0;entryDy=0;" edge="1" parent="1" source="tycSg9s_605FR_uE6vuB-2" target="tycSg9s_605FR_uE6vuB-18">
          <mxGeometry relative="1" as="geometry" />
        </mxCell>
        <mxCell id="tycSg9s_605FR_uE6vuB-2" value="API 등록" style="rounded=0;whiteSpace=wrap;html=1;" vertex="1" parent="1">
          <mxGeometry x="260" y="160" width="120" height="60" as="geometry" />
        </mxCell>
        <mxCell id="tycSg9s_605FR_uE6vuB-3" value="로그인" style="rounded=0;whiteSpace=wrap;html=1;" vertex="1" parent="1">
          <mxGeometry x="130" y="160" width="120" height="60" as="geometry" />
        </mxCell>
        <mxCell id="tycSg9s_605FR_uE6vuB-14" style="edgeStyle=orthogonalEdgeStyle;rounded=0;orthogonalLoop=1;jettySize=auto;html=1;exitX=0.5;exitY=1;exitDx=0;exitDy=0;entryX=0.5;entryY=0;entryDx=0;entryDy=0;" edge="1" parent="1" source="tycSg9s_605FR_uE6vuB-4" target="tycSg9s_605FR_uE6vuB-10">
          <mxGeometry relative="1" as="geometry" />
        </mxCell>
        <mxCell id="tycSg9s_605FR_uE6vuB-4" value="회원가입" style="rounded=0;whiteSpace=wrap;html=1;" vertex="1" parent="1">
          <mxGeometry y="160" width="120" height="60" as="geometry" />
        </mxCell>
        <mxCell id="tycSg9s_605FR_uE6vuB-26" style="edgeStyle=orthogonalEdgeStyle;rounded=0;orthogonalLoop=1;jettySize=auto;html=1;exitX=0.5;exitY=1;exitDx=0;exitDy=0;entryX=0.5;entryY=0;entryDx=0;entryDy=0;" edge="1" parent="1" source="tycSg9s_605FR_uE6vuB-5" target="tycSg9s_605FR_uE6vuB-25">
          <mxGeometry relative="1" as="geometry" />
        </mxCell>
        <mxCell id="tycSg9s_605FR_uE6vuB-5" value="거래소별 계정 정보" style="rounded=0;whiteSpace=wrap;html=1;" vertex="1" parent="1">
          <mxGeometry x="550" y="160" width="120" height="60" as="geometry" />
        </mxCell>
        <mxCell id="tycSg9s_605FR_uE6vuB-15" style="edgeStyle=orthogonalEdgeStyle;rounded=0;orthogonalLoop=1;jettySize=auto;html=1;exitX=0.5;exitY=1;exitDx=0;exitDy=0;entryX=0.5;entryY=0;entryDx=0;entryDy=0;" edge="1" parent="1" source="tycSg9s_605FR_uE6vuB-10" target="tycSg9s_605FR_uE6vuB-13">
          <mxGeometry relative="1" as="geometry" />
        </mxCell>
        <mxCell id="tycSg9s_605FR_uE6vuB-10" value="아이디 중복확인" style="rounded=0;whiteSpace=wrap;html=1;" vertex="1" parent="1">
          <mxGeometry y="250" width="120" height="60" as="geometry" />
        </mxCell>
        <mxCell id="tycSg9s_605FR_uE6vuB-50" style="edgeStyle=orthogonalEdgeStyle;rounded=0;orthogonalLoop=1;jettySize=auto;html=1;exitX=0.5;exitY=1;exitDx=0;exitDy=0;entryX=0.5;entryY=0;entryDx=0;entryDy=0;" edge="1" parent="1" source="tycSg9s_605FR_uE6vuB-11" target="tycSg9s_605FR_uE6vuB-49">
          <mxGeometry relative="1" as="geometry" />
        </mxCell>
        <mxCell id="tycSg9s_605FR_uE6vuB-11" value="전화번호 설정" style="rounded=0;whiteSpace=wrap;html=1;" vertex="1" parent="1">
          <mxGeometry y="550" width="120" height="60" as="geometry" />
        </mxCell>
        <mxCell id="tycSg9s_605FR_uE6vuB-17" style="edgeStyle=orthogonalEdgeStyle;rounded=0;orthogonalLoop=1;jettySize=auto;html=1;exitX=0.5;exitY=1;exitDx=0;exitDy=0;entryX=0.5;entryY=0;entryDx=0;entryDy=0;" edge="1" parent="1" source="tycSg9s_605FR_uE6vuB-12" target="tycSg9s_605FR_uE6vuB-11">
          <mxGeometry relative="1" as="geometry" />
        </mxCell>
        <mxCell id="tycSg9s_605FR_uE6vuB-12" value="이메일 설정" style="rounded=0;whiteSpace=wrap;html=1;" vertex="1" parent="1">
          <mxGeometry y="450" width="120" height="60" as="geometry" />
        </mxCell>
        <mxCell id="tycSg9s_605FR_uE6vuB-16" style="edgeStyle=orthogonalEdgeStyle;rounded=0;orthogonalLoop=1;jettySize=auto;html=1;exitX=0.5;exitY=1;exitDx=0;exitDy=0;entryX=0.5;entryY=0;entryDx=0;entryDy=0;" edge="1" parent="1" source="tycSg9s_605FR_uE6vuB-13" target="tycSg9s_605FR_uE6vuB-12">
          <mxGeometry relative="1" as="geometry" />
        </mxCell>
        <mxCell id="tycSg9s_605FR_uE6vuB-13" value="비밀번호 설정" style="rounded=0;whiteSpace=wrap;html=1;" vertex="1" parent="1">
          <mxGeometry y="350" width="120" height="60" as="geometry" />
        </mxCell>
        <mxCell id="tycSg9s_605FR_uE6vuB-23" style="edgeStyle=orthogonalEdgeStyle;rounded=0;orthogonalLoop=1;jettySize=auto;html=1;exitX=0.5;exitY=1;exitDx=0;exitDy=0;entryX=0.5;entryY=0;entryDx=0;entryDy=0;" edge="1" parent="1" source="tycSg9s_605FR_uE6vuB-18" target="tycSg9s_605FR_uE6vuB-21">
          <mxGeometry relative="1" as="geometry" />
        </mxCell>
        <mxCell id="tycSg9s_605FR_uE6vuB-18" value="&lt;div&gt;&lt;span&gt;거래소 선택&lt;/span&gt;&lt;/div&gt;&lt;div&gt;&lt;span&gt;&lt;br&gt;&lt;/span&gt;&lt;/div&gt;&lt;div style=&quot;text-align: left&quot;&gt;&lt;span&gt;1.빗썸&lt;/span&gt;&lt;/div&gt;&lt;div style=&quot;text-align: left&quot;&gt;&lt;span&gt;2.업비트&lt;/span&gt;&lt;/div&gt;&lt;div style=&quot;text-align: left&quot;&gt;&lt;span&gt;3.코인원&lt;/span&gt;&lt;/div&gt;" style="rounded=0;whiteSpace=wrap;html=1;align=center;" vertex="1" parent="1">
          <mxGeometry x="260" y="280" width="120" height="120" as="geometry" />
        </mxCell>
        <mxCell id="tycSg9s_605FR_uE6vuB-20" value="등록완료" style="rounded=0;whiteSpace=wrap;html=1;" vertex="1" parent="1">
          <mxGeometry x="260" y="550" width="120" height="60" as="geometry" />
        </mxCell>
        <mxCell id="tycSg9s_605FR_uE6vuB-24" style="edgeStyle=orthogonalEdgeStyle;rounded=0;orthogonalLoop=1;jettySize=auto;html=1;exitX=0.5;exitY=1;exitDx=0;exitDy=0;entryX=0.5;entryY=0;entryDx=0;entryDy=0;" edge="1" parent="1" source="tycSg9s_605FR_uE6vuB-21" target="tycSg9s_605FR_uE6vuB-20">
          <mxGeometry relative="1" as="geometry" />
        </mxCell>
        <mxCell id="tycSg9s_605FR_uE6vuB-21" value="회원 API 인증" style="rounded=0;whiteSpace=wrap;html=1;" vertex="1" parent="1">
          <mxGeometry x="260" y="450" width="120" height="60" as="geometry" />
        </mxCell>
        <mxCell id="tycSg9s_605FR_uE6vuB-31" style="edgeStyle=orthogonalEdgeStyle;rounded=0;orthogonalLoop=1;jettySize=auto;html=1;exitX=0.5;exitY=1;exitDx=0;exitDy=0;entryX=0.5;entryY=0;entryDx=0;entryDy=0;" edge="1" parent="1" target="tycSg9s_605FR_uE6vuB-28">
          <mxGeometry relative="1" as="geometry">
            <mxPoint x="610" y="310" as="sourcePoint" />
          </mxGeometry>
        </mxCell>
        <mxCell id="tycSg9s_605FR_uE6vuB-32" style="edgeStyle=orthogonalEdgeStyle;rounded=0;orthogonalLoop=1;jettySize=auto;html=1;exitX=0.5;exitY=1;exitDx=0;exitDy=0;entryX=0.5;entryY=0;entryDx=0;entryDy=0;" edge="1" parent="1" target="tycSg9s_605FR_uE6vuB-27">
          <mxGeometry relative="1" as="geometry">
            <mxPoint x="610" y="310" as="sourcePoint" />
            <Array as="points">
              <mxPoint x="610" y="320" />
              <mxPoint x="474" y="320" />
            </Array>
          </mxGeometry>
        </mxCell>
        <mxCell id="tycSg9s_605FR_uE6vuB-33" style="edgeStyle=orthogonalEdgeStyle;rounded=0;orthogonalLoop=1;jettySize=auto;html=1;exitX=0.5;exitY=1;exitDx=0;exitDy=0;entryX=0.5;entryY=0;entryDx=0;entryDy=0;" edge="1" parent="1" source="tycSg9s_605FR_uE6vuB-25" target="tycSg9s_605FR_uE6vuB-29">
          <mxGeometry relative="1" as="geometry">
            <mxPoint x="610" y="310" as="sourcePoint" />
            <Array as="points">
              <mxPoint x="610" y="320" />
              <mxPoint x="750" y="320" />
            </Array>
          </mxGeometry>
        </mxCell>
        <mxCell id="tycSg9s_605FR_uE6vuB-25" value="보고서 보기" style="rounded=0;whiteSpace=wrap;html=1;" vertex="1" parent="1">
          <mxGeometry x="550" y="240" width="120" height="60" as="geometry" />
        </mxCell>
        <mxCell id="tycSg9s_605FR_uE6vuB-39" style="edgeStyle=orthogonalEdgeStyle;rounded=0;orthogonalLoop=1;jettySize=auto;html=1;exitX=0.5;exitY=1;exitDx=0;exitDy=0;entryX=0.5;entryY=0;entryDx=0;entryDy=0;" edge="1" parent="1" source="tycSg9s_605FR_uE6vuB-27" target="tycSg9s_605FR_uE6vuB-37">
          <mxGeometry relative="1" as="geometry" />
        </mxCell>
        <mxCell id="tycSg9s_605FR_uE6vuB-27" value="일지 상세작성" style="rounded=0;whiteSpace=wrap;html=1;" vertex="1" parent="1">
          <mxGeometry x="414" y="340" width="120" height="60" as="geometry" />
        </mxCell>
        <mxCell id="tycSg9s_605FR_uE6vuB-41" style="edgeStyle=orthogonalEdgeStyle;rounded=0;orthogonalLoop=1;jettySize=auto;html=1;exitX=0.5;exitY=1;exitDx=0;exitDy=0;entryX=0.5;entryY=0;entryDx=0;entryDy=0;" edge="1" parent="1" source="tycSg9s_605FR_uE6vuB-28" target="tycSg9s_605FR_uE6vuB-36">
          <mxGeometry relative="1" as="geometry" />
        </mxCell>
        <mxCell id="tycSg9s_605FR_uE6vuB-28" value="상세작성" style="rounded=0;whiteSpace=wrap;html=1;" vertex="1" parent="1">
          <mxGeometry x="550" y="340" width="120" height="60" as="geometry" />
        </mxCell>
        <mxCell id="tycSg9s_605FR_uE6vuB-44" style="edgeStyle=orthogonalEdgeStyle;rounded=0;orthogonalLoop=1;jettySize=auto;html=1;exitX=0.5;exitY=1;exitDx=0;exitDy=0;entryX=0.5;entryY=0;entryDx=0;entryDy=0;" edge="1" parent="1" source="tycSg9s_605FR_uE6vuB-29" target="tycSg9s_605FR_uE6vuB-35">
          <mxGeometry relative="1" as="geometry" />
        </mxCell>
        <mxCell id="tycSg9s_605FR_uE6vuB-29" value="이전 데이터 &lt;br&gt;파일 첨부" style="rounded=0;whiteSpace=wrap;html=1;" vertex="1" parent="1">
          <mxGeometry x="690" y="340" width="120" height="60" as="geometry" />
        </mxCell>
        <mxCell id="tycSg9s_605FR_uE6vuB-34" value="작성완료" style="rounded=0;whiteSpace=wrap;html=1;" vertex="1" parent="1">
          <mxGeometry x="414" y="550" width="120" height="60" as="geometry" />
        </mxCell>
        <mxCell id="tycSg9s_605FR_uE6vuB-45" style="edgeStyle=orthogonalEdgeStyle;rounded=0;orthogonalLoop=1;jettySize=auto;html=1;exitX=0.5;exitY=1;exitDx=0;exitDy=0;entryX=0.5;entryY=0;entryDx=0;entryDy=0;" edge="1" parent="1" source="tycSg9s_605FR_uE6vuB-35" target="tycSg9s_605FR_uE6vuB-42">
          <mxGeometry relative="1" as="geometry" />
        </mxCell>
        <mxCell id="tycSg9s_605FR_uE6vuB-35" value="입출금 가격 입력" style="rounded=0;whiteSpace=wrap;html=1;" vertex="1" parent="1">
          <mxGeometry x="690" y="450" width="120" height="60" as="geometry" />
        </mxCell>
        <mxCell id="tycSg9s_605FR_uE6vuB-46" style="edgeStyle=orthogonalEdgeStyle;rounded=0;orthogonalLoop=1;jettySize=auto;html=1;exitX=0.5;exitY=1;exitDx=0;exitDy=0;entryX=0.5;entryY=0;entryDx=0;entryDy=0;" edge="1" parent="1" source="tycSg9s_605FR_uE6vuB-36" target="tycSg9s_605FR_uE6vuB-43">
          <mxGeometry relative="1" as="geometry" />
        </mxCell>
        <mxCell id="tycSg9s_605FR_uE6vuB-36" value="Text 및 파일 첨부" style="rounded=0;whiteSpace=wrap;html=1;" vertex="1" parent="1">
          <mxGeometry x="550" y="450" width="120" height="60" as="geometry" />
        </mxCell>
        <mxCell id="tycSg9s_605FR_uE6vuB-40" style="edgeStyle=orthogonalEdgeStyle;rounded=0;orthogonalLoop=1;jettySize=auto;html=1;exitX=0.5;exitY=1;exitDx=0;exitDy=0;entryX=0.5;entryY=0;entryDx=0;entryDy=0;" edge="1" parent="1" source="tycSg9s_605FR_uE6vuB-37" target="tycSg9s_605FR_uE6vuB-34">
          <mxGeometry relative="1" as="geometry" />
        </mxCell>
        <mxCell id="tycSg9s_605FR_uE6vuB-37" value="Text 입력" style="rounded=0;whiteSpace=wrap;html=1;" vertex="1" parent="1">
          <mxGeometry x="414" y="450" width="120" height="60" as="geometry" />
        </mxCell>
        <mxCell id="tycSg9s_605FR_uE6vuB-48" style="edgeStyle=orthogonalEdgeStyle;rounded=0;orthogonalLoop=1;jettySize=auto;html=1;exitX=0.5;exitY=1;exitDx=0;exitDy=0;entryX=0.5;entryY=0;entryDx=0;entryDy=0;" edge="1" parent="1" source="tycSg9s_605FR_uE6vuB-42" target="tycSg9s_605FR_uE6vuB-47">
          <mxGeometry relative="1" as="geometry" />
        </mxCell>
        <mxCell id="tycSg9s_605FR_uE6vuB-42" value="수익률보기" style="rounded=0;whiteSpace=wrap;html=1;" vertex="1" parent="1">
          <mxGeometry x="690" y="550" width="120" height="60" as="geometry" />
        </mxCell>
        <mxCell id="tycSg9s_605FR_uE6vuB-43" value="작성완료" style="rounded=0;whiteSpace=wrap;html=1;" vertex="1" parent="1">
          <mxGeometry x="550" y="550" width="120" height="60" as="geometry" />
        </mxCell>
        <mxCell id="tycSg9s_605FR_uE6vuB-47" value="조회완료" style="rounded=0;whiteSpace=wrap;html=1;" vertex="1" parent="1">
          <mxGeometry x="690" y="650" width="120" height="60" as="geometry" />
        </mxCell>
        <mxCell id="tycSg9s_605FR_uE6vuB-49" value="등록완료" style="rounded=0;whiteSpace=wrap;html=1;" vertex="1" parent="1">
          <mxGeometry y="650" width="120" height="60" as="geometry" />
        </mxCell>
        <mxCell id="tycSg9s_605FR_uE6vuB-62" value="&lt;span style=&quot;font-size: 24px&quot;&gt;2. 시스템 구성도&lt;/span&gt;" style="text;html=1;strokeColor=none;fillColor=none;align=center;verticalAlign=middle;whiteSpace=wrap;rounded=0;" vertex="1" parent="1">
          <mxGeometry x="20" y="30" width="230" height="40" as="geometry" />
        </mxCell>
        <mxCell id="tycSg9s_605FR_uE6vuB-63" value="" style="rounded=0;whiteSpace=wrap;html=1;" vertex="1" parent="1">
          <mxGeometry x="203.7" y="2680" width="560" height="280" as="geometry" />
        </mxCell>
        <mxCell id="tycSg9s_605FR_uE6vuB-64" value="" style="verticalAlign=bottom;endArrow=open;dashed=1;endSize=8;shadow=0;strokeWidth=1;exitX=0.5;exitY=0.75;exitDx=0;exitDy=0;exitPerimeter=0;" edge="1" parent="1" source="tycSg9s_605FR_uE6vuB-86">
          <mxGeometry relative="1" as="geometry">
            <mxPoint x="278.7" y="2530" as="targetPoint" />
            <mxPoint x="478.7" y="2530" as="sourcePoint" />
            <Array as="points">
              <mxPoint x="428.7" y="2530" />
              <mxPoint x="360.7" y="2530" />
              <mxPoint x="290.7" y="2530" />
            </Array>
          </mxGeometry>
        </mxCell>
        <mxCell id="tycSg9s_605FR_uE6vuB-65" value="" style="verticalAlign=bottom;endArrow=open;dashed=1;endSize=8;shadow=0;strokeWidth=1;" edge="1" parent="1">
          <mxGeometry relative="1" as="geometry">
            <mxPoint x="63.5" y="2109" as="targetPoint" />
            <mxPoint x="275" y="2109" as="sourcePoint" />
            <Array as="points">
              <mxPoint x="213.5" y="2109" />
              <mxPoint x="145.5" y="2109" />
              <mxPoint x="75.5" y="2109" />
            </Array>
          </mxGeometry>
        </mxCell>
        <mxCell id="tycSg9s_605FR_uE6vuB-66" value="" style="verticalAlign=bottom;endArrow=open;dashed=1;endSize=8;shadow=0;strokeWidth=1;" edge="1" parent="1">
          <mxGeometry relative="1" as="geometry">
            <mxPoint x="63.5" y="2009" as="targetPoint" />
            <mxPoint x="275" y="2009" as="sourcePoint" />
            <Array as="points">
              <mxPoint x="213.5" y="2009" />
              <mxPoint x="145.5" y="2009" />
              <mxPoint x="75.5" y="2009" />
            </Array>
          </mxGeometry>
        </mxCell>
        <mxCell id="tycSg9s_605FR_uE6vuB-67" value="" style="rounded=0;whiteSpace=wrap;html=1;" vertex="1" parent="1">
          <mxGeometry x="190" y="1699" width="560" height="200" as="geometry" />
        </mxCell>
        <mxCell id="tycSg9s_605FR_uE6vuB-68" value="" style="rounded=0;whiteSpace=wrap;html=1;" vertex="1" parent="1">
          <mxGeometry x="20" y="1494" width="730" height="200" as="geometry" />
        </mxCell>
        <mxCell id="tycSg9s_605FR_uE6vuB-69" value="" style="verticalAlign=bottom;endArrow=open;dashed=1;endSize=8;shadow=0;strokeWidth=1;" edge="1" parent="1" source="tycSg9s_605FR_uE6vuB-71" target="tycSg9s_605FR_uE6vuB-70">
          <mxGeometry relative="1" as="geometry">
            <mxPoint x="70" y="1369" as="targetPoint" />
            <mxPoint x="257.5" y="1369.01" as="sourcePoint" />
            <Array as="points">
              <mxPoint x="150" y="1369" />
              <mxPoint x="90" y="1369" />
              <mxPoint x="70" y="1369" />
              <mxPoint x="60" y="1369" />
            </Array>
          </mxGeometry>
        </mxCell>
        <mxCell id="tycSg9s_605FR_uE6vuB-70" value="사용자" style="shape=umlLifeline;perimeter=lifelinePerimeter;container=1;collapsible=0;recursiveResize=0;rounded=0;shadow=0;strokeWidth=1;" vertex="1" parent="1">
          <mxGeometry x="10" y="1239" width="100" height="1680" as="geometry" />
        </mxCell>
        <mxCell id="tycSg9s_605FR_uE6vuB-71" value="시스템" style="shape=umlLifeline;perimeter=lifelinePerimeter;container=1;collapsible=0;recursiveResize=0;rounded=0;shadow=0;strokeWidth=1;" vertex="1" parent="1">
          <mxGeometry x="220" y="1239" width="100" height="1690" as="geometry" />
        </mxCell>
        <mxCell id="tycSg9s_605FR_uE6vuB-72" value="" style="points=[];perimeter=orthogonalPerimeter;rounded=0;shadow=0;strokeWidth=1;" vertex="1" parent="tycSg9s_605FR_uE6vuB-71">
          <mxGeometry x="45" y="100" width="10" height="50" as="geometry" />
        </mxCell>
        <mxCell id="tycSg9s_605FR_uE6vuB-73" value="" style="points=[];perimeter=orthogonalPerimeter;rounded=0;shadow=0;strokeWidth=1;" vertex="1" parent="tycSg9s_605FR_uE6vuB-71">
          <mxGeometry x="45" y="200" width="10" height="40" as="geometry" />
        </mxCell>
        <mxCell id="tycSg9s_605FR_uE6vuB-74" value="" style="points=[];perimeter=orthogonalPerimeter;rounded=0;shadow=0;strokeWidth=1;" vertex="1" parent="tycSg9s_605FR_uE6vuB-71">
          <mxGeometry x="45" y="690" width="10" height="100" as="geometry" />
        </mxCell>
        <mxCell id="tycSg9s_605FR_uE6vuB-75" value="" style="points=[];perimeter=orthogonalPerimeter;rounded=0;shadow=0;strokeWidth=1;" vertex="1" parent="tycSg9s_605FR_uE6vuB-71">
          <mxGeometry x="45" y="820" width="10" height="520" as="geometry" />
        </mxCell>
        <mxCell id="tycSg9s_605FR_uE6vuB-76" value="" style="points=[];perimeter=orthogonalPerimeter;rounded=0;shadow=0;strokeWidth=1;" vertex="1" parent="tycSg9s_605FR_uE6vuB-71">
          <mxGeometry x="48.7" y="1481" width="10" height="210" as="geometry" />
        </mxCell>
        <mxCell id="tycSg9s_605FR_uE6vuB-77" value="loop" style="html=1;shadow=0;dashed=0;align=center;verticalAlign=middle;shape=mxgraph.arrows2.arrow;dy=0.04;dx=14.2;notch=0;" vertex="1" parent="tycSg9s_605FR_uE6vuB-71">
          <mxGeometry x="-16.3" y="1441" width="90" height="30" as="geometry" />
        </mxCell>
        <mxCell id="tycSg9s_605FR_uE6vuB-78" value="회원가입" style="verticalAlign=bottom;endArrow=block;entryX=0.08;entryY=0.22;shadow=0;strokeWidth=1;entryDx=0;entryDy=0;entryPerimeter=0;fontSize=9;" edge="1" parent="1" source="tycSg9s_605FR_uE6vuB-70" target="tycSg9s_605FR_uE6vuB-72">
          <mxGeometry relative="1" as="geometry">
            <mxPoint x="135" y="1349.0000000000002" as="sourcePoint" />
            <Array as="points">
              <mxPoint x="150" y="1350" />
            </Array>
          </mxGeometry>
        </mxCell>
        <mxCell id="tycSg9s_605FR_uE6vuB-79" value="DB" style="shape=umlLifeline;perimeter=lifelinePerimeter;container=1;collapsible=0;recursiveResize=0;rounded=0;shadow=0;strokeWidth=1;" vertex="1" parent="1">
          <mxGeometry x="440" y="1239" width="100" height="1690" as="geometry" />
        </mxCell>
        <mxCell id="tycSg9s_605FR_uE6vuB-80" value="" style="points=[];perimeter=orthogonalPerimeter;rounded=0;shadow=0;strokeWidth=1;" vertex="1" parent="tycSg9s_605FR_uE6vuB-79">
          <mxGeometry x="45" y="110" width="10" height="30" as="geometry" />
        </mxCell>
        <mxCell id="tycSg9s_605FR_uE6vuB-81" value="" style="points=[];perimeter=orthogonalPerimeter;rounded=0;shadow=0;strokeWidth=1;" vertex="1" parent="tycSg9s_605FR_uE6vuB-79">
          <mxGeometry x="45" y="210" width="10" height="30" as="geometry" />
        </mxCell>
        <mxCell id="tycSg9s_605FR_uE6vuB-82" value="" style="points=[];perimeter=orthogonalPerimeter;rounded=0;shadow=0;strokeWidth=1;" vertex="1" parent="tycSg9s_605FR_uE6vuB-79">
          <mxGeometry x="45" y="390" width="10" height="30" as="geometry" />
        </mxCell>
        <mxCell id="tycSg9s_605FR_uE6vuB-83" value="" style="points=[];perimeter=orthogonalPerimeter;rounded=0;shadow=0;strokeWidth=1;" vertex="1" parent="tycSg9s_605FR_uE6vuB-79">
          <mxGeometry x="45" y="700" width="10" height="40" as="geometry" />
        </mxCell>
        <mxCell id="tycSg9s_605FR_uE6vuB-84" value="" style="points=[];perimeter=orthogonalPerimeter;rounded=0;shadow=0;strokeWidth=1;" vertex="1" parent="tycSg9s_605FR_uE6vuB-79">
          <mxGeometry x="45" y="840" width="10" height="40" as="geometry" />
        </mxCell>
        <mxCell id="tycSg9s_605FR_uE6vuB-85" value="" style="points=[];perimeter=orthogonalPerimeter;rounded=0;shadow=0;strokeWidth=1;" vertex="1" parent="tycSg9s_605FR_uE6vuB-79">
          <mxGeometry x="45" y="920" width="10" height="40" as="geometry" />
        </mxCell>
        <mxCell id="tycSg9s_605FR_uE6vuB-86" value="" style="points=[];perimeter=orthogonalPerimeter;rounded=0;shadow=0;strokeWidth=1;" vertex="1" parent="tycSg9s_605FR_uE6vuB-79">
          <mxGeometry x="48.7" y="1261" width="10" height="40" as="geometry" />
        </mxCell>
        <mxCell id="tycSg9s_605FR_uE6vuB-87" value="" style="points=[];perimeter=orthogonalPerimeter;rounded=0;shadow=0;strokeWidth=1;" vertex="1" parent="tycSg9s_605FR_uE6vuB-79">
          <mxGeometry x="48.7" y="1481" width="10" height="40" as="geometry" />
        </mxCell>
        <mxCell id="tycSg9s_605FR_uE6vuB-88" value="" style="points=[];perimeter=orthogonalPerimeter;rounded=0;shadow=0;strokeWidth=1;" vertex="1" parent="tycSg9s_605FR_uE6vuB-79">
          <mxGeometry x="48.7" y="1541" width="10" height="40" as="geometry" />
        </mxCell>
        <mxCell id="tycSg9s_605FR_uE6vuB-89" value="" style="points=[];perimeter=orthogonalPerimeter;rounded=0;shadow=0;strokeWidth=1;" vertex="1" parent="tycSg9s_605FR_uE6vuB-79">
          <mxGeometry x="48.7" y="1651" width="10" height="40" as="geometry" />
        </mxCell>
        <mxCell id="tycSg9s_605FR_uE6vuB-90" value="거래소" style="shape=umlLifeline;perimeter=lifelinePerimeter;container=1;collapsible=0;recursiveResize=0;rounded=0;shadow=0;strokeWidth=1;" vertex="1" parent="1">
          <mxGeometry x="640" y="1239" width="100" height="1690" as="geometry" />
        </mxCell>
        <mxCell id="tycSg9s_605FR_uE6vuB-91" value="" style="points=[];perimeter=orthogonalPerimeter;rounded=0;shadow=0;strokeWidth=1;" vertex="1" parent="tycSg9s_605FR_uE6vuB-90">
          <mxGeometry x="45" y="280" width="10" height="60" as="geometry" />
        </mxCell>
        <mxCell id="tycSg9s_605FR_uE6vuB-92" value="" style="points=[];perimeter=orthogonalPerimeter;rounded=0;shadow=0;strokeWidth=1;" vertex="1" parent="tycSg9s_605FR_uE6vuB-90">
          <mxGeometry x="45" y="500" width="10" height="60" as="geometry" />
        </mxCell>
        <mxCell id="tycSg9s_605FR_uE6vuB-93" value="" style="points=[];perimeter=orthogonalPerimeter;rounded=0;shadow=0;strokeWidth=1;" vertex="1" parent="tycSg9s_605FR_uE6vuB-90">
          <mxGeometry x="48.7" y="1591" width="10" height="40" as="geometry" />
        </mxCell>
        <mxCell id="tycSg9s_605FR_uE6vuB-94" value="Actor" style="shape=umlActor;verticalLabelPosition=bottom;verticalAlign=top;html=1;outlineConnect=0;" vertex="1" parent="1">
          <mxGeometry x="22.5" y="1289" width="15" height="30" as="geometry" />
        </mxCell>
        <mxCell id="tycSg9s_605FR_uE6vuB-95" value="" style="edgeStyle=orthogonalEdgeStyle;rounded=0;orthogonalLoop=1;jettySize=auto;html=1;" edge="1" parent="1" source="tycSg9s_605FR_uE6vuB-72" target="tycSg9s_605FR_uE6vuB-80">
          <mxGeometry relative="1" as="geometry">
            <mxPoint x="348" y="1449" as="targetPoint" />
            <Array as="points">
              <mxPoint x="340" y="1354" />
              <mxPoint x="340" y="1354" />
            </Array>
          </mxGeometry>
        </mxCell>
        <mxCell id="tycSg9s_605FR_uE6vuB-96" value="" style="verticalAlign=bottom;endArrow=open;dashed=1;endSize=8;shadow=0;strokeWidth=1;entryX=1;entryY=0.612;entryDx=0;entryDy=0;entryPerimeter=0;" edge="1" parent="1" target="tycSg9s_605FR_uE6vuB-72">
          <mxGeometry relative="1" as="geometry">
            <mxPoint x="280" y="1369" as="targetPoint" />
            <mxPoint x="485" y="1370" as="sourcePoint" />
            <Array as="points" />
          </mxGeometry>
        </mxCell>
        <mxCell id="tycSg9s_605FR_uE6vuB-97" value="사용자 인증" style="verticalAlign=bottom;endArrow=block;shadow=0;strokeWidth=1;" edge="1" parent="1">
          <mxGeometry x="0.0537" relative="1" as="geometry">
            <mxPoint x="59.19999999999982" y="1449.0000000000002" as="sourcePoint" />
            <mxPoint x="260" y="1449" as="targetPoint" />
            <Array as="points" />
            <mxPoint as="offset" />
          </mxGeometry>
        </mxCell>
        <mxCell id="tycSg9s_605FR_uE6vuB-98" value="본인 API 인증" style="verticalAlign=bottom;endArrow=block;entryX=0.08;entryY=0.22;shadow=0;strokeWidth=1;entryDx=0;entryDy=0;entryPerimeter=0;fontSize=10;" edge="1" parent="1">
          <mxGeometry relative="1" as="geometry">
            <mxPoint x="60" y="1539" as="sourcePoint" />
            <mxPoint x="265.6999999999998" y="1539" as="targetPoint" />
            <Array as="points">
              <mxPoint x="149.9" y="1539" />
            </Array>
          </mxGeometry>
        </mxCell>
        <mxCell id="tycSg9s_605FR_uE6vuB-99" value="잔액조회" style="verticalAlign=bottom;endArrow=block;entryX=0.16;entryY=0.417;shadow=0;strokeWidth=1;entryDx=0;entryDy=0;entryPerimeter=0;fontSize=10;" edge="1" parent="1" target="tycSg9s_605FR_uE6vuB-91">
          <mxGeometry x="-0.1127" relative="1" as="geometry">
            <mxPoint x="279.3000000000002" y="1543.8000000000002" as="sourcePoint" />
            <mxPoint x="485" y="1543.8" as="targetPoint" />
            <Array as="points">
              <mxPoint x="369.20000000000005" y="1543.8" />
              <mxPoint x="430" y="1544" />
            </Array>
            <mxPoint as="offset" />
          </mxGeometry>
        </mxCell>
        <mxCell id="tycSg9s_605FR_uE6vuB-100" value="본인 API 등록" style="verticalAlign=bottom;endArrow=block;entryX=0.08;entryY=0.22;shadow=0;strokeWidth=1;entryDx=0;entryDy=0;entryPerimeter=0;" edge="1" parent="1">
          <mxGeometry relative="1" as="geometry">
            <mxPoint x="60" y="1629" as="sourcePoint" />
            <mxPoint x="265.6999999999998" y="1629" as="targetPoint" />
            <Array as="points">
              <mxPoint x="149.9" y="1629" />
            </Array>
          </mxGeometry>
        </mxCell>
        <mxCell id="tycSg9s_605FR_uE6vuB-101" value="회원 API 정보 저장" style="verticalAlign=bottom;endArrow=block;entryX=0.08;entryY=0.22;shadow=0;strokeWidth=1;entryDx=0;entryDy=0;entryPerimeter=0;" edge="1" parent="1">
          <mxGeometry relative="1" as="geometry">
            <mxPoint x="279.3000000000002" y="1633.8000000000002" as="sourcePoint" />
            <mxPoint x="485" y="1633.8000000000002" as="targetPoint" />
            <Array as="points">
              <mxPoint x="369.20000000000005" y="1633.8" />
            </Array>
          </mxGeometry>
        </mxCell>
        <mxCell id="tycSg9s_605FR_uE6vuB-102" value="" style="verticalAlign=bottom;endArrow=open;dashed=1;endSize=8;shadow=0;strokeWidth=1;" edge="1" parent="1">
          <mxGeometry relative="1" as="geometry">
            <mxPoint x="59.25" y="1569" as="targetPoint" />
            <mxPoint x="270.75" y="1569" as="sourcePoint" />
            <Array as="points">
              <mxPoint x="141.25" y="1569" />
              <mxPoint x="71.25" y="1569" />
            </Array>
          </mxGeometry>
        </mxCell>
        <mxCell id="tycSg9s_605FR_uE6vuB-103" value="" style="verticalAlign=bottom;endArrow=open;dashed=1;endSize=8;shadow=0;strokeWidth=1;" edge="1" parent="1">
          <mxGeometry relative="1" as="geometry">
            <mxPoint x="60" y="1659" as="targetPoint" />
            <mxPoint x="271.5" y="1659" as="sourcePoint" />
            <Array as="points">
              <mxPoint x="210" y="1659" />
              <mxPoint x="142" y="1659" />
              <mxPoint x="72" y="1659" />
            </Array>
          </mxGeometry>
        </mxCell>
        <mxCell id="tycSg9s_605FR_uE6vuB-104" value="" style="verticalAlign=bottom;endArrow=open;dashed=1;endSize=8;shadow=0;strokeWidth=1;" edge="1" parent="1">
          <mxGeometry relative="1" as="geometry">
            <mxPoint x="280" y="1649" as="targetPoint" />
            <mxPoint x="480" y="1649" as="sourcePoint" />
            <Array as="points">
              <mxPoint x="430" y="1649" />
              <mxPoint x="362" y="1649" />
              <mxPoint x="292" y="1649" />
            </Array>
          </mxGeometry>
        </mxCell>
        <mxCell id="tycSg9s_605FR_uE6vuB-105" value="API 등록" style="html=1;shadow=0;dashed=0;align=center;verticalAlign=middle;shape=mxgraph.arrows2.arrow;dy=0.04;dx=14.2;notch=0;" vertex="1" parent="1">
          <mxGeometry x="20" y="1494" width="120" height="30" as="geometry" />
        </mxCell>
        <mxCell id="tycSg9s_605FR_uE6vuB-106" value="거래내역 초기 저장" style="html=1;shadow=0;dashed=0;align=center;verticalAlign=middle;shape=mxgraph.arrows2.arrow;dy=0.04;dx=14.2;notch=0;" vertex="1" parent="1">
          <mxGeometry x="190" y="1699" width="120" height="30" as="geometry" />
        </mxCell>
        <mxCell id="tycSg9s_605FR_uE6vuB-107" value="" style="points=[];perimeter=orthogonalPerimeter;rounded=0;shadow=0;strokeWidth=1;" vertex="1" parent="1">
          <mxGeometry x="485" y="1819" width="10" height="55" as="geometry" />
        </mxCell>
        <mxCell id="tycSg9s_605FR_uE6vuB-108" value="API 거래내역 조회" style="verticalAlign=bottom;endArrow=block;shadow=0;strokeWidth=1;fontSize=10;" edge="1" parent="1" target="tycSg9s_605FR_uE6vuB-92">
          <mxGeometry x="-0.0145" relative="1" as="geometry">
            <mxPoint x="275" y="1753.8000000000002" as="sourcePoint" />
            <mxPoint x="486.20000000000005" y="1754.785" as="targetPoint" />
            <Array as="points">
              <mxPoint x="364.90000000000003" y="1753.8" />
              <mxPoint x="425.7" y="1754" />
              <mxPoint x="470" y="1755" />
            </Array>
            <mxPoint as="offset" />
          </mxGeometry>
        </mxCell>
        <mxCell id="tycSg9s_605FR_uE6vuB-109" value="" style="points=[];perimeter=orthogonalPerimeter;rounded=0;shadow=0;strokeWidth=1;" vertex="1" parent="1">
          <mxGeometry x="265" y="1739" width="10" height="130" as="geometry" />
        </mxCell>
        <mxCell id="tycSg9s_605FR_uE6vuB-110" value="" style="verticalAlign=bottom;endArrow=open;dashed=1;endSize=8;shadow=0;strokeWidth=1;" edge="1" parent="1">
          <mxGeometry relative="1" as="geometry">
            <mxPoint x="275" y="1769" as="targetPoint" />
            <mxPoint x="686.5" y="1769" as="sourcePoint" />
            <Array as="points">
              <mxPoint x="357" y="1769" />
              <mxPoint x="287" y="1769" />
            </Array>
          </mxGeometry>
        </mxCell>
        <mxCell id="tycSg9s_605FR_uE6vuB-111" value="거래내역 저장" style="verticalAlign=bottom;endArrow=block;entryX=0.08;entryY=0.22;shadow=0;strokeWidth=1;entryDx=0;entryDy=0;entryPerimeter=0;fontSize=10;" edge="1" parent="1">
          <mxGeometry relative="1" as="geometry">
            <mxPoint x="279.3000000000002" y="1829" as="sourcePoint" />
            <mxPoint x="485" y="1829" as="targetPoint" />
            <Array as="points">
              <mxPoint x="369.20000000000005" y="1829" />
            </Array>
          </mxGeometry>
        </mxCell>
        <mxCell id="tycSg9s_605FR_uE6vuB-112" value="" style="verticalAlign=bottom;endArrow=open;dashed=1;endSize=8;shadow=0;strokeWidth=1;" edge="1" parent="1">
          <mxGeometry relative="1" as="geometry">
            <mxPoint x="277.5" y="1853.8000000000002" as="targetPoint" />
            <mxPoint x="477.5" y="1853.8000000000002" as="sourcePoint" />
            <Array as="points">
              <mxPoint x="427.5" y="1853.8" />
              <mxPoint x="359.5" y="1853.8" />
              <mxPoint x="289.5" y="1853.8" />
            </Array>
          </mxGeometry>
        </mxCell>
        <mxCell id="tycSg9s_605FR_uE6vuB-113" value="메인(계정정보)접속" style="verticalAlign=bottom;endArrow=block;entryX=0.08;entryY=0.22;shadow=0;strokeWidth=1;entryDx=0;entryDy=0;entryPerimeter=0;fontSize=10;" edge="1" parent="1">
          <mxGeometry relative="1" as="geometry">
            <mxPoint x="59.30000000000018" y="1939" as="sourcePoint" />
            <mxPoint x="265" y="1939" as="targetPoint" />
            <Array as="points">
              <mxPoint x="149.20000000000002" y="1939" />
            </Array>
          </mxGeometry>
        </mxCell>
        <mxCell id="tycSg9s_605FR_uE6vuB-114" value="" style="points=[];perimeter=orthogonalPerimeter;rounded=0;shadow=0;strokeWidth=1;" vertex="1" parent="1">
          <mxGeometry x="265" y="1529" width="10" height="140" as="geometry" />
        </mxCell>
        <mxCell id="tycSg9s_605FR_uE6vuB-115" value="회원 API키(계정정보) 조회" style="verticalAlign=bottom;endArrow=block;entryX=0.08;entryY=0.22;shadow=0;strokeWidth=1;entryDx=0;entryDy=0;entryPerimeter=0;fontSize=10;" edge="1" parent="1">
          <mxGeometry relative="1" as="geometry">
            <mxPoint x="279.3000000000002" y="1949" as="sourcePoint" />
            <mxPoint x="485" y="1949" as="targetPoint" />
            <Array as="points">
              <mxPoint x="369.20000000000005" y="1949" />
            </Array>
          </mxGeometry>
        </mxCell>
        <mxCell id="tycSg9s_605FR_uE6vuB-116" value="" style="points=[];perimeter=orthogonalPerimeter;rounded=0;shadow=0;strokeWidth=1;" vertex="1" parent="1">
          <mxGeometry x="685" y="1979" width="10" height="40" as="geometry" />
        </mxCell>
        <mxCell id="tycSg9s_605FR_uE6vuB-117" value="회원 잔액조회" style="verticalAlign=bottom;endArrow=block;entryX=0.08;entryY=0.255;shadow=0;strokeWidth=1;entryDx=0;entryDy=0;entryPerimeter=0;fontSize=10;" edge="1" parent="1" target="tycSg9s_605FR_uE6vuB-116">
          <mxGeometry x="-0.0506" y="-10" relative="1" as="geometry">
            <mxPoint x="275" y="1989" as="sourcePoint" />
            <mxPoint x="480.70000000000005" y="1989" as="targetPoint" />
            <Array as="points">
              <mxPoint x="364.90000000000003" y="1989" />
            </Array>
            <mxPoint as="offset" />
          </mxGeometry>
        </mxCell>
        <mxCell id="tycSg9s_605FR_uE6vuB-118" value="" style="verticalAlign=bottom;endArrow=open;dashed=1;endSize=8;shadow=0;strokeWidth=1;" edge="1" parent="1">
          <mxGeometry relative="1" as="geometry">
            <mxPoint x="280" y="1969" as="targetPoint" />
            <mxPoint x="480" y="1969" as="sourcePoint" />
            <Array as="points">
              <mxPoint x="430" y="1969" />
              <mxPoint x="362" y="1969" />
              <mxPoint x="292" y="1969" />
            </Array>
          </mxGeometry>
        </mxCell>
        <mxCell id="tycSg9s_605FR_uE6vuB-119" value="" style="verticalAlign=bottom;endArrow=open;dashed=1;endSize=8;shadow=0;strokeWidth=1;" edge="1" parent="1">
          <mxGeometry relative="1" as="geometry">
            <mxPoint x="273.5" y="2009" as="targetPoint" />
            <mxPoint x="685" y="2009" as="sourcePoint" />
            <Array as="points">
              <mxPoint x="355.5" y="2009" />
              <mxPoint x="285.5" y="2009" />
            </Array>
          </mxGeometry>
        </mxCell>
        <mxCell id="tycSg9s_605FR_uE6vuB-120" value="보고서 페이지 접속" style="verticalAlign=bottom;endArrow=block;entryX=0.08;entryY=0.22;shadow=0;strokeWidth=1;entryDx=0;entryDy=0;entryPerimeter=0;fontSize=10;" edge="1" parent="1">
          <mxGeometry relative="1" as="geometry">
            <mxPoint x="59.30000000000018" y="2078.8" as="sourcePoint" />
            <mxPoint x="265" y="2078.8" as="targetPoint" />
            <Array as="points">
              <mxPoint x="149.20000000000002" y="2078.8" />
            </Array>
          </mxGeometry>
        </mxCell>
        <mxCell id="tycSg9s_605FR_uE6vuB-121" value="거래내역 조회" style="verticalAlign=bottom;endArrow=block;entryX=0.08;entryY=0.22;shadow=0;strokeWidth=1;entryDx=0;entryDy=0;entryPerimeter=0;fontSize=10;" edge="1" parent="1">
          <mxGeometry x="0.0763" relative="1" as="geometry">
            <mxPoint x="279.3000000000002" y="2083.8" as="sourcePoint" />
            <mxPoint x="485" y="2083.8" as="targetPoint" />
            <Array as="points">
              <mxPoint x="369.20000000000005" y="2083.8" />
            </Array>
            <mxPoint as="offset" />
          </mxGeometry>
        </mxCell>
        <mxCell id="tycSg9s_605FR_uE6vuB-122" value="" style="verticalAlign=bottom;endArrow=open;dashed=1;endSize=8;shadow=0;strokeWidth=1;" edge="1" parent="1">
          <mxGeometry relative="1" as="geometry">
            <mxPoint x="280" y="2099" as="targetPoint" />
            <mxPoint x="480" y="2099" as="sourcePoint" />
            <Array as="points">
              <mxPoint x="430" y="2099" />
              <mxPoint x="362" y="2099" />
              <mxPoint x="292" y="2099" />
            </Array>
          </mxGeometry>
        </mxCell>
        <mxCell id="tycSg9s_605FR_uE6vuB-123" value="이전 데이터 파일첨부 (빗썸)" style="verticalAlign=bottom;endArrow=block;entryX=0.08;entryY=0.22;shadow=0;strokeWidth=1;entryDx=0;entryDy=0;entryPerimeter=0;fontSize=10;" edge="1" parent="1">
          <mxGeometry relative="1" as="geometry">
            <mxPoint x="59.30000000000018" y="2159" as="sourcePoint" />
            <mxPoint x="265" y="2159" as="targetPoint" />
            <Array as="points">
              <mxPoint x="149.20000000000002" y="2159" />
            </Array>
          </mxGeometry>
        </mxCell>
        <mxCell id="tycSg9s_605FR_uE6vuB-124" value="" style="verticalAlign=bottom;endArrow=open;dashed=1;endSize=8;shadow=0;strokeWidth=1;" edge="1" parent="1">
          <mxGeometry relative="1" as="geometry">
            <mxPoint x="63.5" y="2189" as="targetPoint" />
            <mxPoint x="260" y="2189" as="sourcePoint" />
            <Array as="points">
              <mxPoint x="213.5" y="2189" />
              <mxPoint x="145.5" y="2189" />
              <mxPoint x="75.5" y="2189" />
            </Array>
          </mxGeometry>
        </mxCell>
        <mxCell id="tycSg9s_605FR_uE6vuB-125" value="" style="points=[];perimeter=orthogonalPerimeter;rounded=0;shadow=0;strokeWidth=1;" vertex="1" parent="1">
          <mxGeometry x="485" y="2229" width="10" height="40" as="geometry" />
        </mxCell>
        <mxCell id="tycSg9s_605FR_uE6vuB-126" value="입출금 내역 가격입력" style="verticalAlign=bottom;endArrow=block;entryX=0.08;entryY=0.22;shadow=0;strokeWidth=1;entryDx=0;entryDy=0;entryPerimeter=0;fontSize=10;" edge="1" parent="1">
          <mxGeometry relative="1" as="geometry">
            <mxPoint x="59.30000000000018" y="2233.8" as="sourcePoint" />
            <mxPoint x="265" y="2233.8" as="targetPoint" />
            <Array as="points">
              <mxPoint x="149.20000000000002" y="2233.8" />
            </Array>
          </mxGeometry>
        </mxCell>
        <mxCell id="tycSg9s_605FR_uE6vuB-127" value="" style="verticalAlign=bottom;endArrow=open;dashed=1;endSize=8;shadow=0;strokeWidth=1;" edge="1" parent="1">
          <mxGeometry relative="1" as="geometry">
            <mxPoint x="63.5" y="2263.8" as="targetPoint" />
            <mxPoint x="260" y="2263.8" as="sourcePoint" />
            <Array as="points">
              <mxPoint x="213.5" y="2263.8" />
              <mxPoint x="145.5" y="2263.8" />
              <mxPoint x="75.5" y="2263.8" />
            </Array>
          </mxGeometry>
        </mxCell>
        <mxCell id="tycSg9s_605FR_uE6vuB-128" value="거래내역 파일변환 후 저장" style="verticalAlign=bottom;endArrow=block;entryX=0.08;entryY=0.22;shadow=0;strokeWidth=1;entryDx=0;entryDy=0;entryPerimeter=0;fontSize=10;" edge="1" parent="1">
          <mxGeometry x="0.0209" relative="1" as="geometry">
            <mxPoint x="275" y="2169" as="sourcePoint" />
            <mxPoint x="480.6999999999998" y="2169" as="targetPoint" />
            <Array as="points">
              <mxPoint x="364.90000000000003" y="2169" />
            </Array>
            <mxPoint as="offset" />
          </mxGeometry>
        </mxCell>
        <mxCell id="tycSg9s_605FR_uE6vuB-129" value="" style="verticalAlign=bottom;endArrow=open;dashed=1;endSize=8;shadow=0;strokeWidth=1;" edge="1" parent="1">
          <mxGeometry relative="1" as="geometry">
            <mxPoint x="280" y="2179" as="targetPoint" />
            <mxPoint x="480" y="2179" as="sourcePoint" />
            <Array as="points">
              <mxPoint x="430" y="2179" />
              <mxPoint x="362" y="2179" />
              <mxPoint x="292" y="2179" />
            </Array>
          </mxGeometry>
        </mxCell>
        <mxCell id="tycSg9s_605FR_uE6vuB-130" value="해당 자료의 가격 저장" style="verticalAlign=bottom;endArrow=block;entryX=0.08;entryY=0.22;shadow=0;strokeWidth=1;entryDx=0;entryDy=0;entryPerimeter=0;fontSize=10;" edge="1" parent="1">
          <mxGeometry x="0.0209" relative="1" as="geometry">
            <mxPoint x="275" y="2243.8" as="sourcePoint" />
            <mxPoint x="480.6999999999998" y="2243.8" as="targetPoint" />
            <Array as="points">
              <mxPoint x="364.90000000000003" y="2243.8" />
            </Array>
            <mxPoint as="offset" />
          </mxGeometry>
        </mxCell>
        <mxCell id="tycSg9s_605FR_uE6vuB-131" value="" style="verticalAlign=bottom;endArrow=open;dashed=1;endSize=8;shadow=0;strokeWidth=1;" edge="1" parent="1">
          <mxGeometry relative="1" as="geometry">
            <mxPoint x="280" y="2253.8" as="targetPoint" />
            <mxPoint x="480" y="2253.8" as="sourcePoint" />
            <Array as="points">
              <mxPoint x="430" y="2253.8" />
              <mxPoint x="362" y="2253.8" />
              <mxPoint x="292" y="2253.8" />
            </Array>
          </mxGeometry>
        </mxCell>
        <mxCell id="tycSg9s_605FR_uE6vuB-132" value="수익률 조회" style="verticalAlign=bottom;endArrow=block;entryX=0.08;entryY=0.22;shadow=0;strokeWidth=1;entryDx=0;entryDy=0;entryPerimeter=0;fontSize=10;" edge="1" parent="1">
          <mxGeometry relative="1" as="geometry">
            <mxPoint x="63.000000000000185" y="2360" as="sourcePoint" />
            <mxPoint x="268.7" y="2360" as="targetPoint" />
            <Array as="points">
              <mxPoint x="152.9" y="2360" />
            </Array>
          </mxGeometry>
        </mxCell>
        <mxCell id="tycSg9s_605FR_uE6vuB-133" value="" style="verticalAlign=bottom;endArrow=open;dashed=1;endSize=8;shadow=0;strokeWidth=1;" edge="1" parent="1">
          <mxGeometry relative="1" as="geometry">
            <mxPoint x="67.2" y="2460" as="targetPoint" />
            <mxPoint x="263.7" y="2460" as="sourcePoint" />
            <Array as="points">
              <mxPoint x="217.2" y="2460" />
              <mxPoint x="149.2" y="2460" />
              <mxPoint x="79.2" y="2460" />
            </Array>
          </mxGeometry>
        </mxCell>
        <mxCell id="tycSg9s_605FR_uE6vuB-134" value="" style="verticalAlign=bottom;endArrow=open;dashed=1;endSize=8;shadow=0;strokeWidth=1;" edge="1" parent="1" source="tycSg9s_605FR_uE6vuB-138">
          <mxGeometry relative="1" as="geometry">
            <mxPoint x="278.7" y="2450" as="targetPoint" />
            <mxPoint x="478.7" y="2450" as="sourcePoint" />
            <Array as="points">
              <mxPoint x="428.70000000000005" y="2450" />
              <mxPoint x="360.70000000000005" y="2450" />
              <mxPoint x="290.70000000000005" y="2450" />
            </Array>
          </mxGeometry>
        </mxCell>
        <mxCell id="tycSg9s_605FR_uE6vuB-135" value="" style="points=[];perimeter=orthogonalPerimeter;rounded=0;shadow=0;strokeWidth=1;" vertex="1" parent="1">
          <mxGeometry x="278.7" y="2370" width="10" height="70" as="geometry" />
        </mxCell>
        <mxCell id="tycSg9s_605FR_uE6vuB-136" value="" style="points=[];perimeter=orthogonalPerimeter;rounded=0;shadow=0;strokeWidth=1;" vertex="1" parent="1">
          <mxGeometry x="288.7" y="2390" width="10" height="50" as="geometry" />
        </mxCell>
        <mxCell id="tycSg9s_605FR_uE6vuB-137" value="" style="points=[];perimeter=orthogonalPerimeter;rounded=0;shadow=0;strokeWidth=1;" vertex="1" parent="1">
          <mxGeometry x="298.7" y="2410" width="10" height="30" as="geometry" />
        </mxCell>
        <mxCell id="tycSg9s_605FR_uE6vuB-138" value="" style="points=[];perimeter=orthogonalPerimeter;rounded=0;shadow=0;strokeWidth=1;" vertex="1" parent="1">
          <mxGeometry x="488.7" y="2420" width="10" height="40" as="geometry" />
        </mxCell>
        <mxCell id="tycSg9s_605FR_uE6vuB-139" value="" style="endArrow=classic;html=1;entryX=1.02;entryY=0.012;entryDx=0;entryDy=0;entryPerimeter=0;" edge="1" parent="1">
          <mxGeometry width="50" height="50" relative="1" as="geometry">
            <mxPoint x="298.7" y="2389.4" as="sourcePoint" />
            <mxPoint x="308.8999999999998" y="2410" as="targetPoint" />
            <Array as="points">
              <mxPoint x="308.7" y="2389.4" />
              <mxPoint x="318.7" y="2389.4" />
              <mxPoint x="318.7" y="2399.4" />
            </Array>
          </mxGeometry>
        </mxCell>
        <mxCell id="tycSg9s_605FR_uE6vuB-140" value="&lt;font style=&quot;font-size: 10px&quot;&gt;평단가 계산&lt;/font&gt;" style="text;html=1;strokeColor=none;fillColor=none;align=center;verticalAlign=middle;whiteSpace=wrap;rounded=0;" vertex="1" parent="1">
          <mxGeometry x="298.7" y="2350" width="55" height="10" as="geometry" />
        </mxCell>
        <mxCell id="tycSg9s_605FR_uE6vuB-141" value="&lt;font style=&quot;font-size: 10px&quot;&gt;수익률 계산&lt;/font&gt;" style="text;html=1;strokeColor=none;fillColor=none;align=center;verticalAlign=middle;whiteSpace=wrap;rounded=0;" vertex="1" parent="1">
          <mxGeometry x="313.7" y="2370" width="55" height="10" as="geometry" />
        </mxCell>
        <mxCell id="tycSg9s_605FR_uE6vuB-142" value="&lt;font style=&quot;font-size: 10px&quot;&gt;개별 수익금액&lt;/font&gt;" style="text;html=1;strokeColor=none;fillColor=none;align=center;verticalAlign=middle;whiteSpace=wrap;rounded=0;" vertex="1" parent="1">
          <mxGeometry x="318.7" y="2390" width="75" height="10" as="geometry" />
        </mxCell>
        <mxCell id="tycSg9s_605FR_uE6vuB-143" value="" style="endArrow=classic;html=1;" edge="1" parent="1">
          <mxGeometry width="50" height="50" relative="1" as="geometry">
            <mxPoint x="278.7" y="2360" as="sourcePoint" />
            <mxPoint x="288.7" y="2369.6" as="targetPoint" />
            <Array as="points">
              <mxPoint x="288.7" y="2360" />
              <mxPoint x="298.7" y="2360" />
              <mxPoint x="298.7" y="2370" />
            </Array>
          </mxGeometry>
        </mxCell>
        <mxCell id="tycSg9s_605FR_uE6vuB-144" value="속성 업데이트" style="verticalAlign=bottom;endArrow=block;entryX=0.08;entryY=0.22;shadow=0;strokeWidth=1;entryDx=0;entryDy=0;entryPerimeter=0;exitX=0.96;exitY=0.673;exitDx=0;exitDy=0;exitPerimeter=0;fontSize=10;" edge="1" parent="1" source="tycSg9s_605FR_uE6vuB-137">
          <mxGeometry x="0.0209" relative="1" as="geometry">
            <mxPoint x="313.7" y="2430" as="sourcePoint" />
            <mxPoint x="488.7" y="2430" as="targetPoint" />
            <Array as="points">
              <mxPoint x="372.90000000000003" y="2430" />
            </Array>
            <mxPoint as="offset" />
          </mxGeometry>
        </mxCell>
        <mxCell id="tycSg9s_605FR_uE6vuB-145" value="" style="endArrow=classic;html=1;entryX=1.02;entryY=0.012;entryDx=0;entryDy=0;entryPerimeter=0;" edge="1" parent="1">
          <mxGeometry width="50" height="50" relative="1" as="geometry">
            <mxPoint x="288.7" y="2370" as="sourcePoint" />
            <mxPoint x="298.8999999999998" y="2390.6" as="targetPoint" />
            <Array as="points">
              <mxPoint x="298.7" y="2370" />
              <mxPoint x="308.7" y="2370" />
              <mxPoint x="308.7" y="2380" />
            </Array>
          </mxGeometry>
        </mxCell>
        <mxCell id="tycSg9s_605FR_uE6vuB-146" value="일지작성" style="verticalAlign=bottom;endArrow=block;entryX=0.08;entryY=0.22;shadow=0;strokeWidth=1;entryDx=0;entryDy=0;entryPerimeter=0;fontSize=10;" edge="1" parent="1">
          <mxGeometry relative="1" as="geometry">
            <mxPoint x="63.000000000000185" y="2500" as="sourcePoint" />
            <mxPoint x="268.7" y="2500" as="targetPoint" />
            <Array as="points">
              <mxPoint x="152.9" y="2500" />
            </Array>
          </mxGeometry>
        </mxCell>
        <mxCell id="tycSg9s_605FR_uE6vuB-147" value="일지 업데이트" style="verticalAlign=bottom;endArrow=block;entryX=-0.43;entryY=0.25;shadow=0;strokeWidth=1;entryDx=0;entryDy=0;entryPerimeter=0;fontSize=10;" edge="1" parent="1" target="tycSg9s_605FR_uE6vuB-86">
          <mxGeometry x="0.0209" relative="1" as="geometry">
            <mxPoint x="278.7" y="2510" as="sourcePoint" />
            <mxPoint x="484.40000000000003" y="2510" as="targetPoint" />
            <Array as="points">
              <mxPoint x="368.6" y="2510" />
            </Array>
            <mxPoint as="offset" />
          </mxGeometry>
        </mxCell>
        <mxCell id="tycSg9s_605FR_uE6vuB-148" value="" style="verticalAlign=bottom;endArrow=open;dashed=1;endSize=8;shadow=0;strokeWidth=1;" edge="1" parent="1">
          <mxGeometry relative="1" as="geometry">
            <mxPoint x="63.7" y="2540" as="targetPoint" />
            <mxPoint x="260.2" y="2540" as="sourcePoint" />
            <Array as="points">
              <mxPoint x="213.7" y="2540" />
              <mxPoint x="145.7" y="2540" />
              <mxPoint x="75.7" y="2540" />
            </Array>
          </mxGeometry>
        </mxCell>
        <mxCell id="tycSg9s_605FR_uE6vuB-149" value="상세작성" style="verticalAlign=bottom;endArrow=block;entryX=0.08;entryY=0.22;shadow=0;strokeWidth=1;entryDx=0;entryDy=0;entryPerimeter=0;fontSize=10;" edge="1" parent="1">
          <mxGeometry relative="1" as="geometry">
            <mxPoint x="63.000000000000185" y="2590" as="sourcePoint" />
            <mxPoint x="268.7" y="2590" as="targetPoint" />
            <Array as="points">
              <mxPoint x="152.9" y="2590" />
            </Array>
          </mxGeometry>
        </mxCell>
        <mxCell id="tycSg9s_605FR_uE6vuB-150" value="" style="verticalAlign=bottom;endArrow=open;dashed=1;endSize=8;shadow=0;strokeWidth=1;" edge="1" parent="1">
          <mxGeometry relative="1" as="geometry">
            <mxPoint x="63.7" y="2630" as="targetPoint" />
            <mxPoint x="260.2" y="2630" as="sourcePoint" />
            <Array as="points">
              <mxPoint x="213.7" y="2630" />
              <mxPoint x="145.7" y="2630" />
              <mxPoint x="75.7" y="2630" />
            </Array>
          </mxGeometry>
        </mxCell>
        <mxCell id="tycSg9s_605FR_uE6vuB-151" value="" style="verticalAlign=bottom;endArrow=open;dashed=1;endSize=8;shadow=0;strokeWidth=1;exitX=0.5;exitY=0.75;exitDx=0;exitDy=0;exitPerimeter=0;" edge="1" parent="1">
          <mxGeometry relative="1" as="geometry">
            <mxPoint x="278.7" y="2620" as="targetPoint" />
            <mxPoint x="493.7" y="2620" as="sourcePoint" />
            <Array as="points">
              <mxPoint x="428.7" y="2620" />
              <mxPoint x="360.7" y="2620" />
              <mxPoint x="290.7" y="2620" />
            </Array>
          </mxGeometry>
        </mxCell>
        <mxCell id="tycSg9s_605FR_uE6vuB-152" value="상세데이터 저장" style="verticalAlign=bottom;endArrow=block;entryX=-0.43;entryY=0.25;shadow=0;strokeWidth=1;entryDx=0;entryDy=0;entryPerimeter=0;fontSize=10;" edge="1" parent="1">
          <mxGeometry x="0.0209" relative="1" as="geometry">
            <mxPoint x="278.7" y="2600" as="sourcePoint" />
            <mxPoint x="484.3999999999998" y="2600" as="targetPoint" />
            <Array as="points">
              <mxPoint x="368.6" y="2600" />
            </Array>
            <mxPoint as="offset" />
          </mxGeometry>
        </mxCell>
        <mxCell id="tycSg9s_605FR_uE6vuB-153" value="" style="points=[];perimeter=orthogonalPerimeter;rounded=0;shadow=0;strokeWidth=1;" vertex="1" parent="1">
          <mxGeometry x="488.7" y="2590" width="10" height="40" as="geometry" />
        </mxCell>
        <mxCell id="tycSg9s_605FR_uE6vuB-154" value="" style="verticalAlign=bottom;endArrow=open;dashed=1;endSize=8;shadow=0;strokeWidth=1;" edge="1" parent="1">
          <mxGeometry relative="1" as="geometry">
            <mxPoint x="278.7" y="2750" as="targetPoint" />
            <mxPoint x="483.7" y="2750" as="sourcePoint" />
            <Array as="points">
              <mxPoint x="428.7" y="2750" />
              <mxPoint x="360.7" y="2750" />
              <mxPoint x="290.7" y="2750" />
            </Array>
          </mxGeometry>
        </mxCell>
        <mxCell id="tycSg9s_605FR_uE6vuB-155" value="회원목록조회" style="verticalAlign=bottom;endArrow=block;entryX=-0.43;entryY=0.25;shadow=0;strokeWidth=1;entryDx=0;entryDy=0;entryPerimeter=0;fontSize=10;" edge="1" parent="1">
          <mxGeometry x="0.0209" relative="1" as="geometry">
            <mxPoint x="278.7" y="2730" as="sourcePoint" />
            <mxPoint x="484.3999999999998" y="2730" as="targetPoint" />
            <Array as="points">
              <mxPoint x="368.6" y="2730" />
            </Array>
            <mxPoint as="offset" />
          </mxGeometry>
        </mxCell>
        <mxCell id="tycSg9s_605FR_uE6vuB-156" value="" style="verticalAlign=bottom;endArrow=open;dashed=1;endSize=8;shadow=0;strokeWidth=1;" edge="1" parent="1">
          <mxGeometry relative="1" as="geometry">
            <mxPoint x="283.7" y="2810" as="targetPoint" />
            <mxPoint x="488.7" y="2810" as="sourcePoint" />
            <Array as="points">
              <mxPoint x="433.7" y="2810" />
              <mxPoint x="365.7" y="2810" />
              <mxPoint x="295.7" y="2810" />
            </Array>
          </mxGeometry>
        </mxCell>
        <mxCell id="tycSg9s_605FR_uE6vuB-157" value="API key조회" style="verticalAlign=bottom;endArrow=block;entryX=-0.43;entryY=0.25;shadow=0;strokeWidth=1;entryDx=0;entryDy=0;entryPerimeter=0;fontSize=10;" edge="1" parent="1">
          <mxGeometry x="0.0209" relative="1" as="geometry">
            <mxPoint x="279.3999999999998" y="2790" as="sourcePoint" />
            <mxPoint x="485.1000000000001" y="2790" as="targetPoint" />
            <Array as="points">
              <mxPoint x="369.3" y="2790" />
            </Array>
            <mxPoint as="offset" />
          </mxGeometry>
        </mxCell>
        <mxCell id="tycSg9s_605FR_uE6vuB-158" value="입출금내역/거래내역 조회" style="verticalAlign=bottom;endArrow=block;entryX=-0.08;entryY=0.275;shadow=0;strokeWidth=1;entryDx=0;entryDy=0;entryPerimeter=0;fontSize=10;" edge="1" parent="1" target="tycSg9s_605FR_uE6vuB-93">
          <mxGeometry x="0.0209" relative="1" as="geometry">
            <mxPoint x="278.7" y="2840" as="sourcePoint" />
            <mxPoint x="484.40000000000003" y="2840" as="targetPoint" />
            <Array as="points">
              <mxPoint x="368.6" y="2840" />
            </Array>
            <mxPoint as="offset" />
          </mxGeometry>
        </mxCell>
        <mxCell id="tycSg9s_605FR_uE6vuB-159" value="" style="verticalAlign=bottom;endArrow=open;dashed=1;endSize=8;shadow=0;strokeWidth=1;" edge="1" parent="1" target="tycSg9s_605FR_uE6vuB-76">
          <mxGeometry relative="1" as="geometry">
            <mxPoint x="483.7" y="2860" as="targetPoint" />
            <mxPoint x="688.7" y="2860" as="sourcePoint" />
            <Array as="points">
              <mxPoint x="633.7" y="2860" />
              <mxPoint x="565.7" y="2860" />
              <mxPoint x="495.7" y="2860" />
            </Array>
          </mxGeometry>
        </mxCell>
        <mxCell id="tycSg9s_605FR_uE6vuB-160" value="" style="verticalAlign=bottom;endArrow=open;dashed=1;endSize=8;shadow=0;strokeWidth=1;" edge="1" parent="1">
          <mxGeometry relative="1" as="geometry">
            <mxPoint x="283.00000000000017" y="2920" as="targetPoint" />
            <mxPoint x="488.00000000000017" y="2920" as="sourcePoint" />
            <Array as="points">
              <mxPoint x="433" y="2920" />
              <mxPoint x="365" y="2920" />
              <mxPoint x="295" y="2920" />
            </Array>
          </mxGeometry>
        </mxCell>
        <mxCell id="tycSg9s_605FR_uE6vuB-161" value="DB저장" style="verticalAlign=bottom;endArrow=block;entryX=-0.43;entryY=0.25;shadow=0;strokeWidth=1;entryDx=0;entryDy=0;entryPerimeter=0;fontSize=10;" edge="1" parent="1">
          <mxGeometry x="0.0209" relative="1" as="geometry">
            <mxPoint x="278.7" y="2900" as="sourcePoint" />
            <mxPoint x="484.3999999999998" y="2900" as="targetPoint" />
            <Array as="points">
              <mxPoint x="368.6" y="2900" />
            </Array>
            <mxPoint as="offset" />
          </mxGeometry>
        </mxCell>
        <mxCell id="tycSg9s_605FR_uE6vuB-162" value="&lt;font style=&quot;font-size: 9px&quot;&gt;&amp;lt;api 정보&amp;gt;&lt;br style=&quot;font-size: 9px&quot;&gt;apikey, secretkey&lt;/font&gt;" style="shape=note;size=20;whiteSpace=wrap;html=1;" vertex="1" parent="1">
          <mxGeometry x="120" y="1576.5" width="90" height="35" as="geometry" />
        </mxCell>
        <mxCell id="tycSg9s_605FR_uE6vuB-163" value="&lt;font size=&quot;1&quot;&gt;&amp;lt;회원가입정보&amp;gt;&lt;br&gt;아이디, 비밀번호,이름,이메일, 전화번호&lt;br&gt;&lt;/font&gt;" style="shape=note;size=20;whiteSpace=wrap;html=1;" vertex="1" parent="1">
          <mxGeometry x="120" y="1279" width="110" height="50" as="geometry" />
        </mxCell>
        <mxCell id="tycSg9s_605FR_uE6vuB-164" value="&lt;font size=&quot;1&quot;&gt;&amp;lt;로그인정보&amp;gt;&lt;br&gt;아이디, 비밀번호&lt;br&gt;&lt;/font&gt;" style="shape=note;size=20;whiteSpace=wrap;html=1;" vertex="1" parent="1">
          <mxGeometry x="120" y="1379" width="110" height="50" as="geometry" />
        </mxCell>
        <mxCell id="tycSg9s_605FR_uE6vuB-165" value="" style="verticalAlign=bottom;endArrow=open;dashed=1;endSize=8;shadow=0;strokeWidth=1;" edge="1" parent="1">
          <mxGeometry relative="1" as="geometry">
            <mxPoint x="64.25" y="1479" as="targetPoint" />
            <mxPoint x="265" y="1479" as="sourcePoint" />
            <Array as="points">
              <mxPoint x="146.25" y="1479" />
              <mxPoint x="76.25" y="1479" />
            </Array>
          </mxGeometry>
        </mxCell>
        <mxCell id="tycSg9s_605FR_uE6vuB-166" value="" style="edgeStyle=orthogonalEdgeStyle;rounded=0;orthogonalLoop=1;jettySize=auto;html=1;" edge="1" parent="1">
          <mxGeometry relative="1" as="geometry">
            <mxPoint x="275" y="1449" as="sourcePoint" />
            <mxPoint x="480" y="1452" as="targetPoint" />
            <Array as="points">
              <mxPoint x="275" y="1452" />
            </Array>
          </mxGeometry>
        </mxCell>
        <mxCell id="tycSg9s_605FR_uE6vuB-167" value="" style="verticalAlign=bottom;endArrow=open;dashed=1;endSize=8;shadow=0;strokeWidth=1;" edge="1" parent="1">
          <mxGeometry relative="1" as="geometry">
            <mxPoint x="275.5" y="1469" as="targetPoint" />
            <mxPoint x="485" y="1469" as="sourcePoint" />
            <Array as="points">
              <mxPoint x="415.5" y="1469" />
            </Array>
          </mxGeometry>
        </mxCell>
        <mxCell id="tycSg9s_605FR_uE6vuB-168" value="&lt;font style=&quot;font-size: 9px&quot;&gt;&amp;lt;거래내역 조회시&amp;gt;&lt;br style=&quot;font-size: 9px&quot;&gt;회원아이디, 거래소&lt;br&gt;&lt;/font&gt;" style="shape=note;size=20;whiteSpace=wrap;html=1;" vertex="1" parent="1">
          <mxGeometry x="330" y="2029" width="130" height="35" as="geometry" />
        </mxCell>
        <mxCell id="tycSg9s_605FR_uE6vuB-169" value="&lt;font style=&quot;font-size: 9px&quot;&gt;결과&lt;/font&gt;" style="text;html=1;strokeColor=none;fillColor=none;align=center;verticalAlign=middle;whiteSpace=wrap;rounded=0;" vertex="1" parent="1">
          <mxGeometry x="152.5" y="1359" width="25" height="10" as="geometry" />
        </mxCell>
        <mxCell id="tycSg9s_605FR_uE6vuB-170" value="&lt;font style=&quot;font-size: 9px&quot;&gt;결과&lt;/font&gt;" style="text;html=1;strokeColor=none;fillColor=none;align=center;verticalAlign=middle;whiteSpace=wrap;rounded=0;" vertex="1" parent="1">
          <mxGeometry x="363" y="1359" width="25" height="10" as="geometry" />
        </mxCell>
        <mxCell id="tycSg9s_605FR_uE6vuB-171" value="&lt;font style=&quot;font-size: 9px&quot;&gt;결과&lt;/font&gt;" style="text;html=1;strokeColor=none;fillColor=none;align=center;verticalAlign=middle;whiteSpace=wrap;rounded=0;" vertex="1" parent="1">
          <mxGeometry x="365" y="1459" width="25" height="10" as="geometry" />
        </mxCell>
        <mxCell id="tycSg9s_605FR_uE6vuB-172" value="&lt;font style=&quot;font-size: 9px&quot;&gt;결과&lt;/font&gt;" style="text;html=1;strokeColor=none;fillColor=none;align=center;verticalAlign=middle;whiteSpace=wrap;rounded=0;" vertex="1" parent="1">
          <mxGeometry x="152.5" y="1469" width="25" height="10" as="geometry" />
        </mxCell>
        <mxCell id="tycSg9s_605FR_uE6vuB-173" value="&lt;font style=&quot;font-size: 9px&quot;&gt;결과&lt;/font&gt;" style="text;html=1;strokeColor=none;fillColor=none;align=center;verticalAlign=middle;whiteSpace=wrap;rounded=0;" vertex="1" parent="1">
          <mxGeometry x="152.5" y="1649" width="25" height="10" as="geometry" />
        </mxCell>
        <mxCell id="tycSg9s_605FR_uE6vuB-174" value="" style="verticalAlign=bottom;endArrow=open;dashed=1;endSize=8;shadow=0;strokeWidth=1;" edge="1" parent="1">
          <mxGeometry relative="1" as="geometry">
            <mxPoint x="275" y="1559" as="targetPoint" />
            <mxPoint x="686.5" y="1559" as="sourcePoint" />
            <Array as="points">
              <mxPoint x="357" y="1559" />
              <mxPoint x="287" y="1559" />
            </Array>
          </mxGeometry>
        </mxCell>
        <mxCell id="tycSg9s_605FR_uE6vuB-175" value="&lt;font style=&quot;font-size: 9px&quot;&gt;결과&lt;/font&gt;" style="text;html=1;strokeColor=none;fillColor=none;align=center;verticalAlign=middle;whiteSpace=wrap;rounded=0;" vertex="1" parent="1">
          <mxGeometry x="372.5" y="1639" width="25" height="10" as="geometry" />
        </mxCell>
        <mxCell id="tycSg9s_605FR_uE6vuB-176" value="&lt;font style=&quot;font-size: 9px&quot;&gt;결과&lt;/font&gt;" style="text;html=1;strokeColor=none;fillColor=none;align=center;verticalAlign=middle;whiteSpace=wrap;rounded=0;" vertex="1" parent="1">
          <mxGeometry x="460" y="1549" width="25" height="10" as="geometry" />
        </mxCell>
        <mxCell id="tycSg9s_605FR_uE6vuB-177" value="&lt;font style=&quot;font-size: 9px&quot;&gt;결과&lt;/font&gt;" style="text;html=1;strokeColor=none;fillColor=none;align=center;verticalAlign=middle;whiteSpace=wrap;rounded=0;" vertex="1" parent="1">
          <mxGeometry x="150" y="1559" width="25" height="10" as="geometry" />
        </mxCell>
        <mxCell id="tycSg9s_605FR_uE6vuB-178" value="&lt;font style=&quot;font-size: 9px&quot;&gt;결과&lt;/font&gt;" style="text;html=1;strokeColor=none;fillColor=none;align=center;verticalAlign=middle;whiteSpace=wrap;rounded=0;" vertex="1" parent="1">
          <mxGeometry x="470" y="1759" width="25" height="10" as="geometry" />
        </mxCell>
        <mxCell id="tycSg9s_605FR_uE6vuB-179" value="&lt;font style=&quot;font-size: 9px&quot;&gt;결과&lt;/font&gt;" style="text;html=1;strokeColor=none;fillColor=none;align=center;verticalAlign=middle;whiteSpace=wrap;rounded=0;" vertex="1" parent="1">
          <mxGeometry x="372.5" y="1839" width="25" height="10" as="geometry" />
        </mxCell>
        <mxCell id="tycSg9s_605FR_uE6vuB-180" value="&lt;font style=&quot;font-size: 9px&quot;&gt;결과&lt;/font&gt;" style="text;html=1;strokeColor=none;fillColor=none;align=center;verticalAlign=middle;whiteSpace=wrap;rounded=0;" vertex="1" parent="1">
          <mxGeometry x="372.5" y="1959" width="25" height="10" as="geometry" />
        </mxCell>
        <mxCell id="tycSg9s_605FR_uE6vuB-181" value="&lt;font style=&quot;font-size: 9px&quot;&gt;결과&lt;/font&gt;" style="text;html=1;strokeColor=none;fillColor=none;align=center;verticalAlign=middle;whiteSpace=wrap;rounded=0;" vertex="1" parent="1">
          <mxGeometry x="540" y="1994" width="25" height="10" as="geometry" />
        </mxCell>
        <mxCell id="tycSg9s_605FR_uE6vuB-182" value="&lt;font style=&quot;font-size: 9px&quot;&gt;결과&lt;/font&gt;" style="text;html=1;strokeColor=none;fillColor=none;align=center;verticalAlign=middle;whiteSpace=wrap;rounded=0;" vertex="1" parent="1">
          <mxGeometry x="152.5" y="1994" width="25" height="10" as="geometry" />
        </mxCell>
        <mxCell id="tycSg9s_605FR_uE6vuB-183" value="&lt;font style=&quot;font-size: 9px&quot;&gt;결과&lt;/font&gt;" style="text;html=1;strokeColor=none;fillColor=none;align=center;verticalAlign=middle;whiteSpace=wrap;rounded=0;" vertex="1" parent="1">
          <mxGeometry x="365" y="2089" width="25" height="10" as="geometry" />
        </mxCell>
        <mxCell id="tycSg9s_605FR_uE6vuB-184" value="&lt;font style=&quot;font-size: 9px&quot;&gt;결과&lt;/font&gt;" style="text;html=1;strokeColor=none;fillColor=none;align=center;verticalAlign=middle;whiteSpace=wrap;rounded=0;" vertex="1" parent="1">
          <mxGeometry x="152.5" y="2099" width="25" height="10" as="geometry" />
        </mxCell>
        <mxCell id="tycSg9s_605FR_uE6vuB-185" value="&lt;font style=&quot;font-size: 9px&quot;&gt;결과&lt;/font&gt;" style="text;html=1;strokeColor=none;fillColor=none;align=center;verticalAlign=middle;whiteSpace=wrap;rounded=0;" vertex="1" parent="1">
          <mxGeometry x="152.5" y="2179" width="25" height="10" as="geometry" />
        </mxCell>
        <mxCell id="tycSg9s_605FR_uE6vuB-186" value="&lt;font style=&quot;font-size: 9px&quot;&gt;결과&lt;/font&gt;" style="text;html=1;strokeColor=none;fillColor=none;align=center;verticalAlign=middle;whiteSpace=wrap;rounded=0;" vertex="1" parent="1">
          <mxGeometry x="372.5" y="2169" width="25" height="10" as="geometry" />
        </mxCell>
        <mxCell id="tycSg9s_605FR_uE6vuB-187" value="&lt;font style=&quot;font-size: 9px&quot;&gt;결과&lt;/font&gt;" style="text;html=1;strokeColor=none;fillColor=none;align=center;verticalAlign=middle;whiteSpace=wrap;rounded=0;" vertex="1" parent="1">
          <mxGeometry x="152.5" y="2249" width="25" height="15" as="geometry" />
        </mxCell>
        <mxCell id="tycSg9s_605FR_uE6vuB-188" value="&lt;font style=&quot;font-size: 9px&quot;&gt;결과&lt;/font&gt;" style="text;html=1;strokeColor=none;fillColor=none;align=center;verticalAlign=middle;whiteSpace=wrap;rounded=0;" vertex="1" parent="1">
          <mxGeometry x="375" y="2241.5" width="25" height="15" as="geometry" />
        </mxCell>
        <mxCell id="tycSg9s_605FR_uE6vuB-189" value="&lt;font style=&quot;font-size: 9px&quot;&gt;결과&lt;/font&gt;" style="text;html=1;strokeColor=none;fillColor=none;align=center;verticalAlign=middle;whiteSpace=wrap;rounded=0;" vertex="1" parent="1">
          <mxGeometry x="386.2" y="2432.5" width="25" height="15" as="geometry" />
        </mxCell>
        <mxCell id="tycSg9s_605FR_uE6vuB-190" value="&lt;font style=&quot;font-size: 9px&quot;&gt;결과&lt;/font&gt;" style="text;html=1;strokeColor=none;fillColor=none;align=center;verticalAlign=middle;whiteSpace=wrap;rounded=0;" vertex="1" parent="1">
          <mxGeometry x="386.2" y="2510" width="25" height="15" as="geometry" />
        </mxCell>
        <mxCell id="tycSg9s_605FR_uE6vuB-191" value="&lt;font style=&quot;font-size: 9px&quot;&gt;결과&lt;/font&gt;" style="text;html=1;strokeColor=none;fillColor=none;align=center;verticalAlign=middle;whiteSpace=wrap;rounded=0;" vertex="1" parent="1">
          <mxGeometry x="386.2" y="2602.5" width="25" height="15" as="geometry" />
        </mxCell>
        <mxCell id="tycSg9s_605FR_uE6vuB-192" value="&lt;font style=&quot;font-size: 9px&quot;&gt;결과&lt;/font&gt;" style="text;html=1;strokeColor=none;fillColor=none;align=center;verticalAlign=middle;whiteSpace=wrap;rounded=0;" vertex="1" parent="1">
          <mxGeometry x="386.2" y="2730" width="25" height="15" as="geometry" />
        </mxCell>
        <mxCell id="tycSg9s_605FR_uE6vuB-193" value="&lt;font style=&quot;font-size: 9px&quot;&gt;결과&lt;/font&gt;" style="text;html=1;strokeColor=none;fillColor=none;align=center;verticalAlign=middle;whiteSpace=wrap;rounded=0;" vertex="1" parent="1">
          <mxGeometry x="386.2" y="2790" width="25" height="15" as="geometry" />
        </mxCell>
        <mxCell id="tycSg9s_605FR_uE6vuB-194" value="&lt;font style=&quot;font-size: 9px&quot;&gt;결과&lt;/font&gt;" style="text;html=1;strokeColor=none;fillColor=none;align=center;verticalAlign=middle;whiteSpace=wrap;rounded=0;" vertex="1" parent="1">
          <mxGeometry x="461.2" y="2840" width="25" height="15" as="geometry" />
        </mxCell>
        <mxCell id="tycSg9s_605FR_uE6vuB-195" value="&lt;font style=&quot;font-size: 9px&quot;&gt;결과&lt;/font&gt;" style="text;html=1;strokeColor=none;fillColor=none;align=center;verticalAlign=middle;whiteSpace=wrap;rounded=0;" vertex="1" parent="1">
          <mxGeometry x="386.2" y="2900" width="25" height="15" as="geometry" />
        </mxCell>
        <mxCell id="tycSg9s_605FR_uE6vuB-196" value="&lt;font style=&quot;font-size: 9px&quot;&gt;결과&lt;/font&gt;" style="text;html=1;strokeColor=none;fillColor=none;align=center;verticalAlign=middle;whiteSpace=wrap;rounded=0;" vertex="1" parent="1">
          <mxGeometry x="153.7" y="2615" width="25" height="15" as="geometry" />
        </mxCell>
        <mxCell id="tycSg9s_605FR_uE6vuB-197" value="&lt;font style=&quot;font-size: 9px&quot;&gt;결과&lt;/font&gt;" style="text;html=1;strokeColor=none;fillColor=none;align=center;verticalAlign=middle;whiteSpace=wrap;rounded=0;" vertex="1" parent="1">
          <mxGeometry x="156.2" y="2520" width="25" height="15" as="geometry" />
        </mxCell>
        <mxCell id="tycSg9s_605FR_uE6vuB-198" value="&lt;font style=&quot;font-size: 9px&quot;&gt;결과&lt;/font&gt;" style="text;html=1;strokeColor=none;fillColor=none;align=center;verticalAlign=middle;whiteSpace=wrap;rounded=0;" vertex="1" parent="1">
          <mxGeometry x="153.7" y="2440" width="25" height="15" as="geometry" />
        </mxCell>
        <mxCell id="tycSg9s_605FR_uE6vuB-200" value="&lt;span style=&quot;font-size: 24px&quot;&gt;3. 시퀀스 다이어그램&lt;/span&gt;" style="text;html=1;strokeColor=none;fillColor=none;align=center;verticalAlign=middle;whiteSpace=wrap;rounded=0;" vertex="1" parent="1">
          <mxGeometry y="1169" width="230" height="40" as="geometry" />
        </mxCell>
        <mxCell id="tycSg9s_605FR_uE6vuB-201" value="" style="rounded=0;whiteSpace=wrap;html=1;" vertex="1" parent="1">
          <mxGeometry x="100.5" y="-1010" width="630" height="880" as="geometry" />
        </mxCell>
        <mxCell id="tycSg9s_605FR_uE6vuB-202" value="사용자" style="shape=umlActor;verticalLabelPosition=bottom;verticalAlign=top;html=1;" vertex="1" parent="1">
          <mxGeometry x="10.5" y="-610" width="30" height="60" as="geometry" />
        </mxCell>
        <mxCell id="tycSg9s_605FR_uE6vuB-203" value="회원가입" style="ellipse;whiteSpace=wrap;html=1;" vertex="1" parent="1">
          <mxGeometry x="200.5" y="-970" width="140" height="70" as="geometry" />
        </mxCell>
        <mxCell id="tycSg9s_605FR_uE6vuB-204" value="Extends" style="endArrow=block;endSize=16;endFill=0;html=1;entryX=0;entryY=0.5;entryDx=0;entryDy=0;" edge="1" parent="1" source="tycSg9s_605FR_uE6vuB-210" target="tycSg9s_605FR_uE6vuB-213">
          <mxGeometry width="160" relative="1" as="geometry">
            <mxPoint x="140.5" y="-605.5" as="sourcePoint" />
            <mxPoint x="300.5" y="-605.5" as="targetPoint" />
          </mxGeometry>
        </mxCell>
        <mxCell id="tycSg9s_605FR_uE6vuB-205" value="&amp;lt;&amp;lt;include&amp;gt;&amp;gt;" style="html=1;verticalAlign=bottom;endArrow=open;dashed=1;endSize=8;entryX=1;entryY=0.5;entryDx=0;entryDy=0;exitX=0;exitY=0.5;exitDx=0;exitDy=0;" edge="1" parent="1" source="tycSg9s_605FR_uE6vuB-208" target="tycSg9s_605FR_uE6vuB-207">
          <mxGeometry relative="1" as="geometry">
            <mxPoint x="560.5" y="-615.5" as="sourcePoint" />
            <mxPoint x="480.5" y="-615.5" as="targetPoint" />
            <Array as="points" />
          </mxGeometry>
        </mxCell>
        <mxCell id="tycSg9s_605FR_uE6vuB-206" value="로그인" style="ellipse;whiteSpace=wrap;html=1;" vertex="1" parent="1">
          <mxGeometry x="200.5" y="-840" width="140" height="70" as="geometry" />
        </mxCell>
        <mxCell id="tycSg9s_605FR_uE6vuB-207" value="API Key 등록" style="ellipse;whiteSpace=wrap;html=1;" vertex="1" parent="1">
          <mxGeometry x="200.5" y="-710" width="140" height="70" as="geometry" />
        </mxCell>
        <mxCell id="tycSg9s_605FR_uE6vuB-208" value="잔액 조회" style="ellipse;whiteSpace=wrap;html=1;" vertex="1" parent="1">
          <mxGeometry x="560.5" y="-770" width="140" height="70" as="geometry" />
        </mxCell>
        <mxCell id="tycSg9s_605FR_uE6vuB-209" value="" style="endArrow=classic;html=1;entryX=0.809;entryY=0.971;entryDx=0;entryDy=0;entryPerimeter=0;" edge="1" parent="1" target="tycSg9s_605FR_uE6vuB-208">
          <mxGeometry width="50" height="50" relative="1" as="geometry">
            <mxPoint x="760.5" y="-560" as="sourcePoint" />
            <mxPoint x="770.5" y="-630" as="targetPoint" />
          </mxGeometry>
        </mxCell>
        <mxCell id="tycSg9s_605FR_uE6vuB-210" value="거래 목록 보고서" style="ellipse;whiteSpace=wrap;html=1;" vertex="1" parent="1">
          <mxGeometry x="185.5" y="-400" width="130" height="70" as="geometry" />
        </mxCell>
        <mxCell id="tycSg9s_605FR_uE6vuB-211" value="거래내역" style="ellipse;whiteSpace=wrap;html=1;" vertex="1" parent="1">
          <mxGeometry x="440.5" y="-470" width="100" height="70" as="geometry" />
        </mxCell>
        <mxCell id="tycSg9s_605FR_uE6vuB-212" value="수익률" style="ellipse;whiteSpace=wrap;html=1;" vertex="1" parent="1">
          <mxGeometry x="440.5" y="-250" width="100" height="70" as="geometry" />
        </mxCell>
        <mxCell id="tycSg9s_605FR_uE6vuB-213" value="일지 작성" style="ellipse;whiteSpace=wrap;html=1;" vertex="1" parent="1">
          <mxGeometry x="440.5" y="-670" width="100" height="80" as="geometry" />
        </mxCell>
        <mxCell id="tycSg9s_605FR_uE6vuB-214" value="상세 작성" style="ellipse;whiteSpace=wrap;html=1;" vertex="1" parent="1">
          <mxGeometry x="440.5" y="-570" width="100" height="70" as="geometry" />
        </mxCell>
        <mxCell id="tycSg9s_605FR_uE6vuB-215" value="거래내역 조회" style="ellipse;whiteSpace=wrap;html=1;" vertex="1" parent="1">
          <mxGeometry x="610.5" y="-520" width="100" height="70" as="geometry" />
        </mxCell>
        <mxCell id="tycSg9s_605FR_uE6vuB-216" value="입출금 내역 조회" style="ellipse;whiteSpace=wrap;html=1;" vertex="1" parent="1">
          <mxGeometry x="600.5" y="-420" width="110" height="80" as="geometry" />
        </mxCell>
        <mxCell id="tycSg9s_605FR_uE6vuB-217" value="Extends" style="endArrow=block;endSize=16;endFill=0;html=1;entryX=0;entryY=0.5;entryDx=0;entryDy=0;exitX=1;exitY=0;exitDx=0;exitDy=0;" edge="1" parent="1" source="tycSg9s_605FR_uE6vuB-210" target="tycSg9s_605FR_uE6vuB-214">
          <mxGeometry width="160" relative="1" as="geometry">
            <mxPoint x="230.5953506274641" y="-406.6001181588367" as="sourcePoint" />
            <mxPoint x="400.5" y="-585" as="targetPoint" />
          </mxGeometry>
        </mxCell>
        <mxCell id="tycSg9s_605FR_uE6vuB-218" value="Extends" style="endArrow=block;endSize=16;endFill=0;html=1;entryX=0;entryY=0.5;entryDx=0;entryDy=0;exitX=1;exitY=0.5;exitDx=0;exitDy=0;" edge="1" parent="1" source="tycSg9s_605FR_uE6vuB-210" target="tycSg9s_605FR_uE6vuB-211">
          <mxGeometry width="160" relative="1" as="geometry">
            <mxPoint x="240.5953506274641" y="-396.6001181588367" as="sourcePoint" />
            <mxPoint x="410.5" y="-575" as="targetPoint" />
          </mxGeometry>
        </mxCell>
        <mxCell id="tycSg9s_605FR_uE6vuB-219" value="Extends" style="endArrow=block;endSize=16;endFill=0;html=1;entryX=0;entryY=0.5;entryDx=0;entryDy=0;exitX=0.612;exitY=0.989;exitDx=0;exitDy=0;exitPerimeter=0;" edge="1" parent="1" source="tycSg9s_605FR_uE6vuB-210" target="tycSg9s_605FR_uE6vuB-212">
          <mxGeometry width="160" relative="1" as="geometry">
            <mxPoint x="250.5953506274641" y="-386.6001181588367" as="sourcePoint" />
            <mxPoint x="420.5" y="-565" as="targetPoint" />
          </mxGeometry>
        </mxCell>
        <mxCell id="tycSg9s_605FR_uE6vuB-220" value="&amp;lt;&amp;lt;include&amp;gt;&amp;gt;" style="html=1;verticalAlign=bottom;endArrow=open;dashed=1;endSize=8;entryX=0.986;entryY=0.411;entryDx=0;entryDy=0;exitX=0;exitY=0.5;exitDx=0;exitDy=0;entryPerimeter=0;" edge="1" parent="1" source="tycSg9s_605FR_uE6vuB-215" target="tycSg9s_605FR_uE6vuB-211">
          <mxGeometry relative="1" as="geometry">
            <mxPoint x="510.5" y="-695" as="sourcePoint" />
            <mxPoint x="359.9974746830585" y="-679.7487373415292" as="targetPoint" />
            <Array as="points" />
          </mxGeometry>
        </mxCell>
        <mxCell id="tycSg9s_605FR_uE6vuB-221" value="&amp;lt;&amp;lt;include&amp;gt;&amp;gt;" style="html=1;verticalAlign=bottom;endArrow=open;dashed=1;endSize=8;exitX=0;exitY=0.5;exitDx=0;exitDy=0;entryX=1;entryY=1;entryDx=0;entryDy=0;" edge="1" parent="1" source="tycSg9s_605FR_uE6vuB-216" target="tycSg9s_605FR_uE6vuB-211">
          <mxGeometry relative="1" as="geometry">
            <mxPoint x="520.5" y="-685" as="sourcePoint" />
            <mxPoint x="369.9974746830585" y="-669.7487373415292" as="targetPoint" />
            <Array as="points" />
          </mxGeometry>
        </mxCell>
        <mxCell id="tycSg9s_605FR_uE6vuB-222" value="" style="endArrow=classic;html=1;entryX=0.983;entryY=0.309;entryDx=0;entryDy=0;entryPerimeter=0;" edge="1" parent="1" target="tycSg9s_605FR_uE6vuB-215">
          <mxGeometry width="50" height="50" relative="1" as="geometry">
            <mxPoint x="760.5" y="-530" as="sourcePoint" />
            <mxPoint x="651.3400000000001" y="-685.2" as="targetPoint" />
          </mxGeometry>
        </mxCell>
        <mxCell id="tycSg9s_605FR_uE6vuB-223" value="" style="endArrow=classic;html=1;entryX=1;entryY=0.5;entryDx=0;entryDy=0;" edge="1" parent="1" target="tycSg9s_605FR_uE6vuB-216">
          <mxGeometry width="50" height="50" relative="1" as="geometry">
            <mxPoint x="770.5" y="-480" as="sourcePoint" />
            <mxPoint x="661.3400000000001" y="-675.2" as="targetPoint" />
          </mxGeometry>
        </mxCell>
        <mxCell id="tycSg9s_605FR_uE6vuB-224" value="" style="endArrow=classic;html=1;entryX=0;entryY=0.5;entryDx=0;entryDy=0;" edge="1" parent="1" target="tycSg9s_605FR_uE6vuB-203">
          <mxGeometry width="50" height="50" relative="1" as="geometry">
            <mxPoint x="40.5" y="-640" as="sourcePoint" />
            <mxPoint x="230.5" y="-930" as="targetPoint" />
            <Array as="points" />
          </mxGeometry>
        </mxCell>
        <mxCell id="tycSg9s_605FR_uE6vuB-225" value="" style="endArrow=classic;html=1;entryX=0;entryY=0.5;entryDx=0;entryDy=0;" edge="1" parent="1" target="tycSg9s_605FR_uE6vuB-206">
          <mxGeometry width="50" height="50" relative="1" as="geometry">
            <mxPoint x="60.5" y="-600" as="sourcePoint" />
            <mxPoint x="240.5" y="-920" as="targetPoint" />
            <Array as="points" />
          </mxGeometry>
        </mxCell>
        <mxCell id="tycSg9s_605FR_uE6vuB-226" value="" style="endArrow=classic;html=1;entryX=0;entryY=0.5;entryDx=0;entryDy=0;" edge="1" parent="1" target="tycSg9s_605FR_uE6vuB-207">
          <mxGeometry width="50" height="50" relative="1" as="geometry">
            <mxPoint x="70.5" y="-570" as="sourcePoint" />
            <mxPoint x="250.5" y="-825" as="targetPoint" />
          </mxGeometry>
        </mxCell>
        <mxCell id="tycSg9s_605FR_uE6vuB-227" value="계정 정보" style="ellipse;whiteSpace=wrap;html=1;" vertex="1" parent="1">
          <mxGeometry x="210.5" y="-590" width="120" height="70" as="geometry" />
        </mxCell>
        <mxCell id="tycSg9s_605FR_uE6vuB-228" value="" style="endArrow=classic;html=1;entryX=0;entryY=0.5;entryDx=0;entryDy=0;" edge="1" parent="1" target="tycSg9s_605FR_uE6vuB-227">
          <mxGeometry width="50" height="50" relative="1" as="geometry">
            <mxPoint x="40.5" y="-520" as="sourcePoint" />
            <mxPoint x="250.5" y="-665" as="targetPoint" />
            <Array as="points" />
          </mxGeometry>
        </mxCell>
        <mxCell id="tycSg9s_605FR_uE6vuB-229" value="&amp;lt;&amp;lt;include&amp;gt;&amp;gt;" style="html=1;verticalAlign=bottom;endArrow=open;dashed=1;endSize=8;" edge="1" parent="1" source="tycSg9s_605FR_uE6vuB-210" target="tycSg9s_605FR_uE6vuB-227">
          <mxGeometry relative="1" as="geometry">
            <mxPoint x="530.5" y="-705" as="sourcePoint" />
            <mxPoint x="369.9974746830585" y="-689.7487373415292" as="targetPoint" />
            <Array as="points" />
          </mxGeometry>
        </mxCell>
        <mxCell id="tycSg9s_605FR_uE6vuB-230" value="거래소" style="rounded=0;whiteSpace=wrap;html=1;" vertex="1" parent="1">
          <mxGeometry x="770.5" y="-560" width="50" height="60" as="geometry" />
        </mxCell>
        <mxCell id="tycSg9s_605FR_uE6vuB-231" value="입출금 가격&lt;br&gt;입력 &amp;amp; 엑셀 파일 업로드" style="ellipse;whiteSpace=wrap;html=1;" vertex="1" parent="1">
          <mxGeometry x="440.5" y="-370" width="100" height="70" as="geometry" />
        </mxCell>
        <mxCell id="tycSg9s_605FR_uE6vuB-232" value="Extends" style="endArrow=block;endSize=16;endFill=0;html=1;entryX=0;entryY=0.5;entryDx=0;entryDy=0;exitX=1;exitY=1;exitDx=0;exitDy=0;" edge="1" parent="1" source="tycSg9s_605FR_uE6vuB-210" target="tycSg9s_605FR_uE6vuB-231">
          <mxGeometry width="160" relative="1" as="geometry">
            <mxPoint x="350.5" y="-450" as="sourcePoint" />
            <mxPoint x="460.5" y="-380" as="targetPoint" />
          </mxGeometry>
        </mxCell>
        <mxCell id="tycSg9s_605FR_uE6vuB-233" value="&lt;font style=&quot;font-size: 25px&quot;&gt;1. 유스케이스&lt;/font&gt;" style="text;html=1;strokeColor=none;fillColor=none;align=center;verticalAlign=middle;whiteSpace=wrap;rounded=0;" vertex="1" parent="1">
          <mxGeometry y="-1060" width="250" height="20" as="geometry" />
        </mxCell>
        <mxCell id="tycSg9s_605FR_uE6vuB-235" value="&lt;span style=&quot;font-size: 24px&quot;&gt;4. ERD&lt;/span&gt;" style="text;html=1;strokeColor=none;fillColor=none;align=center;verticalAlign=middle;whiteSpace=wrap;rounded=0;" vertex="1" parent="1">
          <mxGeometry x="10.5" y="3560" width="99.5" height="40" as="geometry" />
        </mxCell>
        <mxCell id="tycSg9s_605FR_uE6vuB-242" value="api_tbl" style="text;html=1;strokeColor=none;fillColor=none;align=center;verticalAlign=middle;whiteSpace=wrap;rounded=0;" vertex="1" parent="1">
          <mxGeometry x="34.6" y="3640" width="50" height="20" as="geometry" />
        </mxCell>
        <mxCell id="tycSg9s_605FR_uE6vuB-243" value="idx : number&lt;br&gt;apiKey : api키&lt;br&gt;secretKey : secretkey키&lt;br&gt;memId&amp;nbsp; : 아이디&lt;br&gt;site : 사이트" style="rounded=0;whiteSpace=wrap;html=1;align=left;" vertex="1" parent="1">
          <mxGeometry x="34.6" y="3660" width="140" height="90" as="geometry" />
        </mxCell>
        <mxCell id="tycSg9s_605FR_uE6vuB-244" value="board : 게시판" style="text;html=1;strokeColor=none;fillColor=none;align=center;verticalAlign=middle;whiteSpace=wrap;rounded=0;" vertex="1" parent="1">
          <mxGeometry x="321.2" y="3640" width="84.5" height="20" as="geometry" />
        </mxCell>
        <mxCell id="tycSg9s_605FR_uE6vuB-245" value="id : number&lt;br&gt;orderId : 오더아이디&lt;br&gt;content : 내용&lt;br&gt;createDate : 생성일자&amp;nbsp;&lt;br&gt;title : 제목&lt;br&gt;memId : 아이디" style="rounded=0;whiteSpace=wrap;html=1;align=left;" vertex="1" parent="1">
          <mxGeometry x="321.2" y="3660" width="140" height="110" as="geometry" />
        </mxCell>
        <mxCell id="tycSg9s_605FR_uE6vuB-246" value="coinonestate : 코인원 상태 체크" style="text;html=1;strokeColor=none;fillColor=none;align=center;verticalAlign=middle;whiteSpace=wrap;rounded=0;" vertex="1" parent="1">
          <mxGeometry x="540" y="3640" width="176.3" height="20" as="geometry" />
        </mxCell>
        <mxCell id="tycSg9s_605FR_uE6vuB-247" value="site : 사이트&amp;nbsp;&lt;br&gt;state : 상태 확인" style="rounded=0;whiteSpace=wrap;html=1;align=left;" vertex="1" parent="1">
          <mxGeometry x="540" y="3660" width="140" height="40" as="geometry" />
        </mxCell>
        <mxCell id="tycSg9s_605FR_uE6vuB-248" value="report_tbl (업비트 빗썸 코인원)" style="text;html=1;strokeColor=none;fillColor=none;align=center;verticalAlign=middle;whiteSpace=wrap;rounded=0;" vertex="1" parent="1">
          <mxGeometry x="34.6" y="3790" width="170" height="20" as="geometry" />
        </mxCell>
        <mxCell id="tycSg9s_605FR_uE6vuB-249" value="orderId : 오더아이디&lt;br&gt;accUnits : 누적 수량&amp;nbsp;&lt;br&gt;avgPrice : 평균가&lt;br&gt;currency : 코인명&lt;br&gt;fee : 수수료&lt;br&gt;file : 파일명&lt;br&gt;idx : number&lt;br&gt;log : 비고&lt;br&gt;price : 가격&lt;br&gt;revenue : 수익률&lt;br&gt;site : 사이트&lt;br&gt;totalPrice : 정산금액&lt;br&gt;transactionDate : 체결시간&lt;br&gt;type : 타입&lt;br&gt;units : 수량&lt;br&gt;memId : 아이디&lt;br&gt;expectIncome : 예상수익금&lt;br&gt;income : 개별수익금&lt;br&gt;incomeCal : 누적수익금&lt;br&gt;totalRate : 정산비율&lt;br&gt;totalRateCal : 누적정산비율&lt;br&gt;bidAvgPrice : 매수평균단가&lt;br&gt;askAvgPrice : 매도평균단가&lt;br&gt;bidTotalPriceCal : 매수누적정산금액&lt;br&gt;askRotalPriceCal : 매도누적정산금액&lt;br&gt;bidUnitCal : 매수누적수량&lt;br&gt;askUnitCal : 매도누적수량" style="rounded=0;whiteSpace=wrap;html=1;align=left;" vertex="1" parent="1">
          <mxGeometry x="34.6" y="3810" width="230" height="430" as="geometry" />
        </mxCell>
        <mxCell id="tycSg9s_605FR_uE6vuB-250" value="&amp;nbsp;revenuestate_tbl" style="text;html=1;strokeColor=none;fillColor=none;align=center;verticalAlign=middle;whiteSpace=wrap;rounded=0;" vertex="1" parent="1">
          <mxGeometry x="321.2" y="3790" width="99.5" height="20" as="geometry" />
        </mxCell>
        <mxCell id="tycSg9s_605FR_uE6vuB-251" value="idx : number&lt;br&gt;memId :아이디&lt;br&gt;site : 사이트&lt;br&gt;state : 상태 확인" style="rounded=0;whiteSpace=wrap;html=1;align=left;" vertex="1" parent="1">
          <mxGeometry x="321.2" y="3810" width="140" height="110" as="geometry" />
        </mxCell>
        <mxCell id="tycSg9s_605FR_uE6vuB-254" value="user" style="text;html=1;strokeColor=none;fillColor=none;align=center;verticalAlign=middle;whiteSpace=wrap;rounded=0;" vertex="1" parent="1">
          <mxGeometry x="540" y="3710" width="41.3" height="20" as="geometry" />
        </mxCell>
        <mxCell id="tycSg9s_605FR_uE6vuB-255" value="memId : 아이디&lt;br&gt;createDate : 생성날짜&lt;br&gt;email : 이메일&lt;br&gt;idx : number&lt;br&gt;name : 이름&lt;br&gt;password : 비밀번호&lt;br&gt;phone : 전화번호&lt;br&gt;role : 유저상태" style="rounded=0;whiteSpace=wrap;html=1;align=left;" vertex="1" parent="1">
          <mxGeometry x="540" y="3730" width="140" height="130" as="geometry" />
        </mxCell>
        <mxCell id="tycSg9s_605FR_uE6vuB-257" value="vm_tbl" style="text;html=1;strokeColor=none;fillColor=none;align=center;verticalAlign=middle;whiteSpace=wrap;rounded=0;" vertex="1" parent="1">
          <mxGeometry x="540" y="3870" width="41.3" height="20" as="geometry" />
        </mxCell>
        <mxCell id="tycSg9s_605FR_uE6vuB-258" value="idx : number&lt;br&gt;siteName : 사이트&lt;br&gt;vmId : 코인명&lt;br&gt;vmName : 코인명 한글" style="rounded=0;whiteSpace=wrap;html=1;align=left;" vertex="1" parent="1">
          <mxGeometry x="540" y="3890" width="140" height="90" as="geometry" />
        </mxCell>
      </root>
    </mxGraphModel>
  </diagram>
</mxfile>
